M48
; DRILL file {KiCad 7.0.5} date Sat Dec  2 12:19:22 2023
; FORMAT={3:3/ absolute / metric / suppress leading zeros}
; #@! TF.CreationDate,2023-12-02T12:19:22+05:30
; #@! TF.GenerationSoftware,Kicad,Pcbnew,7.0.5
; #@! TF.FileFunction,MixedPlating,1,2
FMAT,2
METRIC,TZ
; #@! TA.AperFunction,Plated,PTH,ViaDrill
T1C0.300
; #@! TA.AperFunction,Plated,PTH,ComponentDrill
T2C0.900
; #@! TA.AperFunction,Plated,PTH,ComponentDrill
T3C1.000
; #@! TA.AperFunction,Plated,PTH,ComponentDrill
T4C1.100
; #@! TA.AperFunction,Plated,PTH,ComponentDrill
T5C1.400
; #@! TA.AperFunction,Plated,PTH,ComponentDrill
T6C1.540
; #@! TA.AperFunction,NonPlated,NPTH,ComponentDrill
T7C2.100
%
G90
G05
T1
X120800Y-66200
X121600Y-62400
X124600Y-66000
X151800Y-71900
X158200Y-76400
X161000Y-79000
X173200Y-83400
T2
X164788Y-57800
X167288Y-57800
X169788Y-57800
T3
X116900Y-58800
X119440Y-58800
X121980Y-58800
X124520Y-58800
X127060Y-58800
X129600Y-58800
X132140Y-58800
X165800Y-69200
X173400Y-69200
T4
X76600Y-72200
X76600Y-76700
X83100Y-72200
X83100Y-76700
X85050Y-64400
X85050Y-68900
X85200Y-79800
X85200Y-84300
X91550Y-64400
X91550Y-68900
X91700Y-79800
X91700Y-84300
X93400Y-72000
X93400Y-76500
X99900Y-72000
X99900Y-76500
X107780Y-62360
X107780Y-64900
X107780Y-67440
X107780Y-69980
X107780Y-72520
X107780Y-75060
X107780Y-77600
X107780Y-80140
X107780Y-82680
X107780Y-85220
X107780Y-87760
X107780Y-90300
X123020Y-62360
X123020Y-64900
X123020Y-67440
X123020Y-69980
X123020Y-72520
X123020Y-75060
X123020Y-77600
X123020Y-80140
X123020Y-82680
X123020Y-85220
X123020Y-87760
X123020Y-90300
T5
X148495Y-59855
X148795Y-91255
X155795Y-91255
X156095Y-59855
T6
X126613Y-68513
X126913Y-91413
X130013Y-68513
X137612Y-68513
X141112Y-68513
X141112Y-91413
T7
X73400Y-57950
X73450Y-92350
X174825Y-92575
T0
M30
