%TF.GenerationSoftware,KiCad,Pcbnew,7.0.5*%
%TF.CreationDate,2023-12-02T12:19:24+05:30*%
%TF.ProjectId,GameBoy-Arduino,47616d65-426f-4792-9d41-726475696e6f,rev?*%
%TF.SameCoordinates,Original*%
%TF.FileFunction,Copper,L2,Bot*%
%TF.FilePolarity,Positive*%
%FSLAX46Y46*%
G04 Gerber Fmt 4.6, Leading zero omitted, Abs format (unit mm)*
G04 Created by KiCad (PCBNEW 7.0.5) date 2023-12-02 12:19:24*
%MOMM*%
%LPD*%
G01*
G04 APERTURE LIST*
G04 Aperture macros list*
%AMRoundRect*
0 Rectangle with rounded corners*
0 $1 Rounding radius*
0 $2 $3 $4 $5 $6 $7 $8 $9 X,Y pos of 4 corners*
0 Add a 4 corners polygon primitive as box body*
4,1,4,$2,$3,$4,$5,$6,$7,$8,$9,$2,$3,0*
0 Add four circle primitives for the rounded corners*
1,1,$1+$1,$2,$3*
1,1,$1+$1,$4,$5*
1,1,$1+$1,$6,$7*
1,1,$1+$1,$8,$9*
0 Add four rect primitives between the rounded corners*
20,1,$1+$1,$2,$3,$4,$5,0*
20,1,$1+$1,$4,$5,$6,$7,0*
20,1,$1+$1,$6,$7,$8,$9,0*
20,1,$1+$1,$8,$9,$2,$3,0*%
G04 Aperture macros list end*
%TA.AperFunction,ComponentPad*%
%ADD10C,2.000000*%
%TD*%
%TA.AperFunction,ComponentPad*%
%ADD11R,2.000000X2.000000*%
%TD*%
%TA.AperFunction,ComponentPad*%
%ADD12O,1.600000X2.000000*%
%TD*%
%TA.AperFunction,ComponentPad*%
%ADD13R,1.408000X1.408000*%
%TD*%
%TA.AperFunction,ComponentPad*%
%ADD14C,1.408000*%
%TD*%
%TA.AperFunction,ComponentPad*%
%ADD15R,1.600000X1.600000*%
%TD*%
%TA.AperFunction,ComponentPad*%
%ADD16C,1.600000*%
%TD*%
%TA.AperFunction,ComponentPad*%
%ADD17R,2.800000X2.800000*%
%TD*%
%TA.AperFunction,ComponentPad*%
%ADD18RoundRect,0.750000X0.750000X-1.750000X0.750000X1.750000X-0.750000X1.750000X-0.750000X-1.750000X0*%
%TD*%
%TA.AperFunction,ViaPad*%
%ADD19C,0.600000*%
%TD*%
%TA.AperFunction,Conductor*%
%ADD20C,0.250000*%
%TD*%
%TA.AperFunction,Conductor*%
%ADD21C,1.000000*%
%TD*%
G04 APERTURE END LIST*
D10*
%TO.P,SW1,1,A*%
%TO.N,/Buttons/BTNUP*%
X85050000Y-64400000D03*
X91550000Y-64400000D03*
%TO.P,SW1,2,B*%
%TO.N,GND*%
X85050000Y-68900000D03*
X91550000Y-68900000D03*
%TD*%
D11*
%TO.P,BZ1,1,-*%
%TO.N,/Microcontroller/Buzzer*%
X165800000Y-69200000D03*
D10*
%TO.P,BZ1,2,+*%
%TO.N,GND*%
X173400000Y-69200000D03*
%TD*%
%TO.P,SW4,1,A*%
%TO.N,/Buttons/BTNRIGHT*%
X76600000Y-72200000D03*
X83100000Y-72200000D03*
%TO.P,SW4,2,B*%
%TO.N,GND*%
X76600000Y-76700000D03*
X83100000Y-76700000D03*
%TD*%
%TO.P,SW3,1,A*%
%TO.N,/Buttons/BTNLFT*%
X93400000Y-72000000D03*
X99900000Y-72000000D03*
%TO.P,SW3,2,B*%
%TO.N,GND*%
X93400000Y-76500000D03*
X99900000Y-76500000D03*
%TD*%
D12*
%TO.P,U5,1,GND*%
%TO.N,GND*%
X116900000Y-58800000D03*
%TO.P,U5,2,VCC*%
%TO.N,+3.3V*%
X119440000Y-58800000D03*
%TO.P,U5,3,CLK*%
%TO.N,/LCD/CLK*%
X121980000Y-58800000D03*
%TO.P,U5,4,MOSI*%
%TO.N,/LCD/MOSI*%
X124520000Y-58800000D03*
%TO.P,U5,5,RES*%
%TO.N,/LCD/RES*%
X127060000Y-58800000D03*
%TO.P,U5,6,DC*%
%TO.N,/LCD/DC*%
X129600000Y-58800000D03*
%TO.P,U5,7,CS*%
%TO.N,GND*%
X132140000Y-58800000D03*
%TD*%
D13*
%TO.P,SW7,1,A*%
%TO.N,unconnected-(SW7-A-Pad1)*%
X169787500Y-57800000D03*
D14*
%TO.P,SW7,2,B*%
%TO.N,/LiManage_OUT*%
X167287500Y-57800000D03*
%TO.P,SW7,3,C*%
%TO.N,/BOOST_OUT*%
X164787500Y-57800000D03*
%TD*%
D10*
%TO.P,SW2,1,A*%
%TO.N,/Buttons/BTNDWN*%
X85200000Y-79800000D03*
X91700000Y-79800000D03*
%TO.P,SW2,2,B*%
%TO.N,GND*%
X85200000Y-84300000D03*
X91700000Y-84300000D03*
%TD*%
D15*
%TO.P,U4,1,TX0*%
%TO.N,unconnected-(U4-TX0-Pad1)*%
X107780000Y-90300000D03*
D16*
%TO.P,U4,2,RX1*%
%TO.N,unconnected-(U4-RX1-Pad2)*%
X107780000Y-87760000D03*
%TO.P,U4,3,GND*%
%TO.N,GND*%
X107780000Y-85220000D03*
%TO.P,U4,4,GND*%
X107780000Y-82680000D03*
%TO.P,U4,5,SDA/D2*%
%TO.N,unconnected-(U4-SDA{slash}D2-Pad5)*%
X107780000Y-80140000D03*
%TO.P,U4,6,SCL/D3*%
%TO.N,unconnected-(U4-SCL{slash}D3-Pad6)*%
X107780000Y-77600000D03*
%TO.P,U4,7,D4*%
%TO.N,/LCD/DC*%
X107780000Y-75060000D03*
%TO.P,U4,8,D5*%
%TO.N,/Microcontroller/Buzzer*%
X107780000Y-72520000D03*
%TO.P,U4,9,D6*%
%TO.N,/LCD/RES*%
X107780000Y-69980000D03*
%TO.P,U4,10,D7*%
%TO.N,/Buttons/BTNA*%
X107780000Y-67440000D03*
%TO.P,U4,11,D8*%
%TO.N,/Buttons/BTNB*%
X107780000Y-64900000D03*
%TO.P,U4,12,D9*%
%TO.N,unconnected-(U4-D9-Pad12)*%
X107780000Y-62360000D03*
%TO.P,U4,13,D10*%
%TO.N,unconnected-(U4-D10-Pad13)*%
X123020000Y-62360000D03*
%TO.P,U4,14,D16*%
%TO.N,/LCD/MOSI*%
X123020000Y-64900000D03*
%TO.P,U4,15,D14*%
%TO.N,unconnected-(U4-D14-Pad15)*%
X123020000Y-67440000D03*
%TO.P,U4,16,D15*%
%TO.N,/LCD/CLK*%
X123020000Y-69980000D03*
%TO.P,U4,17,A0*%
%TO.N,/Buttons/BTNUP*%
X123020000Y-72520000D03*
%TO.P,U4,18,A1*%
%TO.N,/Buttons/BTNLFT*%
X123020000Y-75060000D03*
%TO.P,U4,19,A2*%
%TO.N,/Buttons/BTNRIGHT*%
X123020000Y-77600000D03*
%TO.P,U4,20,A3*%
%TO.N,/Buttons/BTNDWN*%
X123020000Y-80140000D03*
%TO.P,U4,21,VCC*%
%TO.N,+3.3V*%
X123020000Y-82680000D03*
%TO.P,U4,22,RST*%
%TO.N,unconnected-(U4-RST-Pad22)*%
X123020000Y-85220000D03*
%TO.P,U4,23,GND*%
%TO.N,GND*%
X123020000Y-87760000D03*
%TO.P,U4,24,RAW*%
%TO.N,+5V*%
X123020000Y-90300000D03*
%TD*%
D17*
%TO.P,U1,1,IN+*%
%TO.N,unconnected-(U1-IN+-Pad1)*%
X141112500Y-91412500D03*
%TO.P,U1,2,IN-*%
%TO.N,unconnected-(U1-IN--Pad2)*%
X126912500Y-91412500D03*
%TO.P,U1,3,OUT+*%
%TO.N,/LiManage_OUT*%
X141112500Y-68512500D03*
%TO.P,U1,4,OUT-*%
%TO.N,GND*%
X126612500Y-68512500D03*
%TO.P,U1,5,B+*%
%TO.N,/B+*%
X137612500Y-68512500D03*
%TO.P,U1,6,B-*%
%TO.N,/B-*%
X130012500Y-68512500D03*
%TD*%
D18*
%TO.P,U2,1,VIN+*%
%TO.N,/BOOST_OUT*%
X156095000Y-59855000D03*
%TO.P,U2,2,VIN-*%
%TO.N,GND*%
X148495000Y-59855000D03*
%TO.P,U2,3,VOUT+*%
%TO.N,+5V*%
X155795000Y-91255000D03*
%TO.P,U2,4,VOUT-*%
%TO.N,GND*%
X148795000Y-91255000D03*
%TD*%
D19*
%TO.N,+3.3V*%
X124600000Y-66000000D03*
X120800000Y-66200000D03*
%TO.N,GND*%
X158200000Y-76400000D03*
X173200000Y-83400000D03*
%TO.N,/Buttons/BTNB*%
X161000000Y-79000000D03*
%TO.N,/Buttons/BTNA*%
X151800000Y-71900000D03*
%TO.N,/LCD/CLK*%
X121600000Y-62400000D03*
%TD*%
D20*
%TO.N,/Buttons/BTNLFT*%
X101472000Y-73572000D02*
X121532000Y-73572000D01*
X121532000Y-73572000D02*
X123020000Y-75060000D01*
X99900000Y-72000000D02*
X101472000Y-73572000D01*
%TO.N,/Buttons/BTNRIGHT*%
X121800000Y-77600000D02*
X123020000Y-77600000D01*
X92888000Y-79088000D02*
X120312000Y-79088000D01*
X86000000Y-72200000D02*
X92888000Y-79088000D01*
X83100000Y-72200000D02*
X86000000Y-72200000D01*
X120312000Y-79088000D02*
X121800000Y-77600000D01*
%TO.N,GND*%
X132265000Y-58675000D02*
X132140000Y-58800000D01*
%TO.N,/Buttons/BTNUP*%
X123020000Y-72520000D02*
X117720000Y-72520000D01*
X92125000Y-63825000D02*
X91550000Y-64400000D01*
X113692000Y-68492000D02*
X104692000Y-68492000D01*
X100025000Y-63825000D02*
X92125000Y-63825000D01*
X117720000Y-72520000D02*
X113692000Y-68492000D01*
X104692000Y-68492000D02*
X100025000Y-63825000D01*
%TO.N,/Buttons/BTNDWN*%
X121260000Y-80140000D02*
X120000000Y-81400000D01*
X120000000Y-81400000D02*
X96000000Y-81400000D01*
X92725000Y-80825000D02*
X91700000Y-79800000D01*
X96000000Y-81400000D02*
X95425000Y-80825000D01*
X95425000Y-80825000D02*
X92725000Y-80825000D01*
X123020000Y-80140000D02*
X121260000Y-80140000D01*
%TO.N,/Buttons/BTNB*%
X159400000Y-69800000D02*
X152800000Y-69800000D01*
X140866579Y-62133421D02*
X140933158Y-62200000D01*
X142556158Y-63823000D02*
X140866579Y-62133421D01*
X107780000Y-64900000D02*
X114900000Y-64900000D01*
X151156159Y-63823000D02*
X142556158Y-63823000D01*
X119200000Y-60600000D02*
X139333158Y-60600000D01*
X152177000Y-64843841D02*
X151156159Y-63823000D01*
X161000000Y-79000000D02*
X160600000Y-78600000D01*
X160600000Y-71000000D02*
X159400000Y-69800000D01*
X114900000Y-64900000D02*
X119200000Y-60600000D01*
X139333158Y-60600000D02*
X140866579Y-62133421D01*
X152800000Y-69800000D02*
X152177000Y-69177000D01*
X160600000Y-78600000D02*
X160600000Y-71000000D01*
X152177000Y-69177000D02*
X152177000Y-64843841D01*
%TO.N,/Buttons/BTNA*%
X142400000Y-64200000D02*
X151000000Y-64200000D01*
X139177000Y-60977000D02*
X142400000Y-64200000D01*
X114726579Y-67440000D02*
X121189579Y-60977000D01*
X151800000Y-65000000D02*
X151800000Y-71900000D01*
X107780000Y-67440000D02*
X114726579Y-67440000D01*
X151000000Y-64200000D02*
X151800000Y-65000000D01*
X121189579Y-60977000D02*
X139177000Y-60977000D01*
D21*
%TO.N,+5V*%
X155795000Y-91255000D02*
X155795000Y-88395000D01*
X126205000Y-87795000D02*
X123700000Y-90300000D01*
X155795000Y-88395000D02*
X155195000Y-87795000D01*
X155195000Y-87795000D02*
X126205000Y-87795000D01*
X123700000Y-90300000D02*
X123020000Y-90300000D01*
D20*
%TO.N,/LCD/CLK*%
X123020000Y-69980000D02*
X122180000Y-69980000D01*
X122180000Y-69980000D02*
X121600000Y-69400000D01*
X121600000Y-69400000D02*
X121600000Y-62400000D01*
%TD*%
%TA.AperFunction,Conductor*%
%TO.N,GND*%
G36*
X175246599Y-55550492D02*
G01*
X175246648Y-55550500D01*
X175266715Y-55550500D01*
X175272962Y-55550500D01*
X175277018Y-55550633D01*
X175460281Y-55562644D01*
X175531937Y-55567340D01*
X175539970Y-55568398D01*
X175774158Y-55614980D01*
X175788517Y-55617837D01*
X175796358Y-55619938D01*
X175865361Y-55643361D01*
X176036337Y-55701399D01*
X176043811Y-55704495D01*
X176271107Y-55816585D01*
X176278132Y-55820642D01*
X176488840Y-55961433D01*
X176495268Y-55966365D01*
X176657294Y-56108457D01*
X176685801Y-56133457D01*
X176691540Y-56139196D01*
X176858632Y-56329729D01*
X176863570Y-56336164D01*
X177004357Y-56546867D01*
X177008416Y-56553897D01*
X177109968Y-56759824D01*
X177120498Y-56781175D01*
X177123602Y-56788670D01*
X177139218Y-56834670D01*
X177205061Y-57028641D01*
X177207162Y-57036482D01*
X177256599Y-57285016D01*
X177257659Y-57293065D01*
X177274367Y-57547980D01*
X177274500Y-57552036D01*
X177274500Y-93022962D01*
X177274367Y-93027018D01*
X177257659Y-93281934D01*
X177256599Y-93289983D01*
X177207162Y-93538517D01*
X177205061Y-93546358D01*
X177123605Y-93786323D01*
X177120498Y-93793824D01*
X177008417Y-94021101D01*
X177004357Y-94028132D01*
X176863570Y-94238835D01*
X176858628Y-94245276D01*
X176691542Y-94435801D01*
X176685801Y-94441542D01*
X176495276Y-94608628D01*
X176488835Y-94613570D01*
X176278132Y-94754357D01*
X176271101Y-94758417D01*
X176043824Y-94870498D01*
X176036323Y-94873605D01*
X175796359Y-94955061D01*
X175788517Y-94957162D01*
X175585140Y-94997617D01*
X175560948Y-95000000D01*
X141865448Y-95000000D01*
X73027636Y-94949519D01*
X73027515Y-94949500D01*
X73008285Y-94949500D01*
X73002048Y-94949500D01*
X72997992Y-94949367D01*
X72743065Y-94932659D01*
X72735018Y-94931599D01*
X72679485Y-94920553D01*
X72486482Y-94882162D01*
X72478640Y-94880061D01*
X72323905Y-94827536D01*
X72238670Y-94798602D01*
X72231181Y-94795500D01*
X72003897Y-94683416D01*
X71996867Y-94679357D01*
X71786164Y-94538570D01*
X71779729Y-94533632D01*
X71589196Y-94366540D01*
X71583457Y-94360801D01*
X71416365Y-94170268D01*
X71411433Y-94163840D01*
X71270642Y-93953132D01*
X71266585Y-93946107D01*
X71154495Y-93718811D01*
X71151399Y-93711337D01*
X71069938Y-93471358D01*
X71067837Y-93463517D01*
X71059085Y-93419519D01*
X71018398Y-93214970D01*
X71017340Y-93206933D01*
X71014922Y-93170046D01*
X71009309Y-93084397D01*
X71000633Y-92952018D01*
X71000500Y-92947962D01*
X71000500Y-92350001D01*
X72144532Y-92350001D01*
X72164364Y-92576686D01*
X72164366Y-92576697D01*
X72223258Y-92796488D01*
X72223261Y-92796497D01*
X72319431Y-93002732D01*
X72319432Y-93002734D01*
X72449954Y-93189141D01*
X72610858Y-93350045D01*
X72610861Y-93350047D01*
X72797266Y-93480568D01*
X73003504Y-93576739D01*
X73223308Y-93635635D01*
X73393214Y-93650499D01*
X73393215Y-93650500D01*
X73393216Y-93650500D01*
X73506785Y-93650500D01*
X73506785Y-93650499D01*
X73676692Y-93635635D01*
X73896496Y-93576739D01*
X74102734Y-93480568D01*
X74289139Y-93350047D01*
X74450047Y-93189139D01*
X74580568Y-93002734D01*
X74676739Y-92796496D01*
X74735635Y-92576692D01*
X74755468Y-92350000D01*
X74755320Y-92348313D01*
X74736090Y-92128511D01*
X74735635Y-92123308D01*
X74676739Y-91903504D01*
X74580568Y-91697266D01*
X74450047Y-91510861D01*
X74450045Y-91510858D01*
X74289141Y-91349954D01*
X74102734Y-91219432D01*
X74102732Y-91219431D01*
X73896497Y-91123261D01*
X73896488Y-91123258D01*
X73676697Y-91064366D01*
X73676687Y-91064364D01*
X73506785Y-91049500D01*
X73506784Y-91049500D01*
X73393216Y-91049500D01*
X73393215Y-91049500D01*
X73223312Y-91064364D01*
X73223302Y-91064366D01*
X73003511Y-91123258D01*
X73003502Y-91123261D01*
X72797267Y-91219431D01*
X72797265Y-91219432D01*
X72610858Y-91349954D01*
X72449954Y-91510858D01*
X72319432Y-91697265D01*
X72319431Y-91697267D01*
X72223261Y-91903502D01*
X72223258Y-91903511D01*
X72164366Y-92123302D01*
X72164364Y-92123313D01*
X72144532Y-92349998D01*
X72144532Y-92350001D01*
X71000500Y-92350001D01*
X71000500Y-84300005D01*
X83694858Y-84300005D01*
X83715385Y-84547729D01*
X83715387Y-84547738D01*
X83776412Y-84788717D01*
X83876266Y-85016364D01*
X83976564Y-85169882D01*
X84674070Y-84472376D01*
X84676884Y-84485915D01*
X84746442Y-84620156D01*
X84849638Y-84730652D01*
X84978819Y-84809209D01*
X85030002Y-84823549D01*
X84329942Y-85523609D01*
X84376768Y-85560055D01*
X84376770Y-85560056D01*
X84595385Y-85678364D01*
X84595396Y-85678369D01*
X84830506Y-85759083D01*
X85075707Y-85800000D01*
X85324293Y-85800000D01*
X85569493Y-85759083D01*
X85804603Y-85678369D01*
X85804614Y-85678364D01*
X86023228Y-85560057D01*
X86023231Y-85560055D01*
X86070056Y-85523609D01*
X85371568Y-84825121D01*
X85488458Y-84774349D01*
X85605739Y-84678934D01*
X85692928Y-84555415D01*
X85723354Y-84469802D01*
X86423434Y-85169882D01*
X86523731Y-85016369D01*
X86623587Y-84788717D01*
X86684612Y-84547738D01*
X86684614Y-84547729D01*
X86705141Y-84300005D01*
X90194858Y-84300005D01*
X90215385Y-84547729D01*
X90215387Y-84547738D01*
X90276412Y-84788717D01*
X90376266Y-85016364D01*
X90476564Y-85169882D01*
X91174070Y-84472376D01*
X91176884Y-84485915D01*
X91246442Y-84620156D01*
X91349638Y-84730652D01*
X91478819Y-84809209D01*
X91530002Y-84823549D01*
X90829942Y-85523609D01*
X90876768Y-85560055D01*
X90876770Y-85560056D01*
X91095385Y-85678364D01*
X91095396Y-85678369D01*
X91330506Y-85759083D01*
X91575707Y-85800000D01*
X91824293Y-85800000D01*
X92069493Y-85759083D01*
X92304603Y-85678369D01*
X92304614Y-85678364D01*
X92523228Y-85560057D01*
X92523231Y-85560055D01*
X92570056Y-85523609D01*
X91871568Y-84825121D01*
X91988458Y-84774349D01*
X92105739Y-84678934D01*
X92192928Y-84555415D01*
X92223354Y-84469802D01*
X92923434Y-85169882D01*
X93023731Y-85016369D01*
X93123587Y-84788717D01*
X93184612Y-84547738D01*
X93184614Y-84547729D01*
X93205141Y-84300005D01*
X93205141Y-84299994D01*
X93184614Y-84052270D01*
X93184612Y-84052261D01*
X93123587Y-83811282D01*
X93023731Y-83583630D01*
X92923434Y-83430116D01*
X92225929Y-84127622D01*
X92223116Y-84114085D01*
X92153558Y-83979844D01*
X92050362Y-83869348D01*
X91921181Y-83790791D01*
X91869997Y-83776450D01*
X92570057Y-83076390D01*
X92570056Y-83076389D01*
X92523229Y-83039943D01*
X92304614Y-82921635D01*
X92304603Y-82921630D01*
X92069493Y-82840916D01*
X91824293Y-82800000D01*
X91575707Y-82800000D01*
X91330506Y-82840916D01*
X91095396Y-82921630D01*
X91095390Y-82921632D01*
X90876761Y-83039949D01*
X90829942Y-83076388D01*
X90829942Y-83076390D01*
X91528431Y-83774878D01*
X91411542Y-83825651D01*
X91294261Y-83921066D01*
X91207072Y-84044585D01*
X91176645Y-84130197D01*
X90476564Y-83430116D01*
X90376267Y-83583632D01*
X90276412Y-83811282D01*
X90215387Y-84052261D01*
X90215385Y-84052270D01*
X90194858Y-84299994D01*
X90194858Y-84300005D01*
X86705141Y-84300005D01*
X86705141Y-84299994D01*
X86684614Y-84052270D01*
X86684612Y-84052261D01*
X86623587Y-83811282D01*
X86523731Y-83583630D01*
X86423434Y-83430116D01*
X85725929Y-84127622D01*
X85723116Y-84114085D01*
X85653558Y-83979844D01*
X85550362Y-83869348D01*
X85421181Y-83790791D01*
X85369997Y-83776450D01*
X86070057Y-83076390D01*
X86070056Y-83076389D01*
X86023229Y-83039943D01*
X85804614Y-82921635D01*
X85804603Y-82921630D01*
X85569493Y-82840916D01*
X85324293Y-82800000D01*
X85075707Y-82800000D01*
X84830506Y-82840916D01*
X84595396Y-82921630D01*
X84595390Y-82921632D01*
X84376761Y-83039949D01*
X84329942Y-83076388D01*
X84329942Y-83076390D01*
X85028431Y-83774878D01*
X84911542Y-83825651D01*
X84794261Y-83921066D01*
X84707072Y-84044585D01*
X84676645Y-84130197D01*
X83976564Y-83430116D01*
X83876267Y-83583632D01*
X83776412Y-83811282D01*
X83715387Y-84052261D01*
X83715385Y-84052270D01*
X83694858Y-84299994D01*
X83694858Y-84300005D01*
X71000500Y-84300005D01*
X71000500Y-79800005D01*
X83694357Y-79800005D01*
X83714890Y-80047812D01*
X83714892Y-80047824D01*
X83775936Y-80288881D01*
X83875826Y-80516606D01*
X84011833Y-80724782D01*
X84011836Y-80724785D01*
X84180256Y-80907738D01*
X84376491Y-81060474D01*
X84595190Y-81178828D01*
X84830386Y-81259571D01*
X85075665Y-81300500D01*
X85324335Y-81300500D01*
X85569614Y-81259571D01*
X85804810Y-81178828D01*
X86023509Y-81060474D01*
X86219744Y-80907738D01*
X86388164Y-80724785D01*
X86524173Y-80516607D01*
X86624063Y-80288881D01*
X86685108Y-80047821D01*
X86697854Y-79894000D01*
X86705643Y-79800005D01*
X86705643Y-79799994D01*
X86685109Y-79552187D01*
X86685107Y-79552175D01*
X86624063Y-79311118D01*
X86524173Y-79083393D01*
X86388166Y-78875217D01*
X86324122Y-78805647D01*
X86219744Y-78692262D01*
X86023509Y-78539526D01*
X86023507Y-78539525D01*
X86023506Y-78539524D01*
X85804811Y-78421172D01*
X85804802Y-78421169D01*
X85569616Y-78340429D01*
X85324335Y-78299500D01*
X85075665Y-78299500D01*
X84830383Y-78340429D01*
X84595197Y-78421169D01*
X84595188Y-78421172D01*
X84376493Y-78539524D01*
X84180257Y-78692261D01*
X84011833Y-78875217D01*
X83875826Y-79083393D01*
X83775936Y-79311118D01*
X83714892Y-79552175D01*
X83714890Y-79552187D01*
X83694357Y-79799994D01*
X83694357Y-79800005D01*
X71000500Y-79800005D01*
X71000500Y-76700005D01*
X75094859Y-76700005D01*
X75115385Y-76947729D01*
X75115387Y-76947738D01*
X75176412Y-77188717D01*
X75276266Y-77416364D01*
X75376564Y-77569882D01*
X76074070Y-76872376D01*
X76076884Y-76885915D01*
X76146442Y-77020156D01*
X76249638Y-77130652D01*
X76378819Y-77209209D01*
X76430002Y-77223549D01*
X75729942Y-77923609D01*
X75776768Y-77960055D01*
X75776770Y-77960056D01*
X75995385Y-78078364D01*
X75995396Y-78078369D01*
X76230506Y-78159083D01*
X76475707Y-78200000D01*
X76724293Y-78200000D01*
X76969493Y-78159083D01*
X77204603Y-78078369D01*
X77204614Y-78078364D01*
X77423228Y-77960057D01*
X77423231Y-77960055D01*
X77470056Y-77923609D01*
X76771568Y-77225121D01*
X76888458Y-77174349D01*
X77005739Y-77078934D01*
X77092928Y-76955415D01*
X77123354Y-76869802D01*
X77823434Y-77569882D01*
X77923731Y-77416369D01*
X78023587Y-77188717D01*
X78084612Y-76947738D01*
X78084614Y-76947729D01*
X78105141Y-76700005D01*
X81594859Y-76700005D01*
X81615385Y-76947729D01*
X81615387Y-76947738D01*
X81676412Y-77188717D01*
X81776266Y-77416364D01*
X81876564Y-77569882D01*
X82574070Y-76872376D01*
X82576884Y-76885915D01*
X82646442Y-77020156D01*
X82749638Y-77130652D01*
X82878819Y-77209209D01*
X82930002Y-77223549D01*
X82229942Y-77923609D01*
X82276768Y-77960055D01*
X82276770Y-77960056D01*
X82495385Y-78078364D01*
X82495396Y-78078369D01*
X82730506Y-78159083D01*
X82975707Y-78200000D01*
X83224293Y-78200000D01*
X83469493Y-78159083D01*
X83704603Y-78078369D01*
X83704614Y-78078364D01*
X83923228Y-77960057D01*
X83923231Y-77960055D01*
X83970056Y-77923609D01*
X83271568Y-77225121D01*
X83388458Y-77174349D01*
X83505739Y-77078934D01*
X83592928Y-76955415D01*
X83623354Y-76869802D01*
X84323434Y-77569882D01*
X84423731Y-77416369D01*
X84523587Y-77188717D01*
X84584612Y-76947738D01*
X84584614Y-76947729D01*
X84605141Y-76700005D01*
X84605141Y-76699994D01*
X84584614Y-76452270D01*
X84584612Y-76452261D01*
X84523587Y-76211282D01*
X84423731Y-75983630D01*
X84323434Y-75830116D01*
X83625929Y-76527622D01*
X83623116Y-76514085D01*
X83553558Y-76379844D01*
X83450362Y-76269348D01*
X83321181Y-76190791D01*
X83269997Y-76176450D01*
X83970057Y-75476390D01*
X83970056Y-75476389D01*
X83923229Y-75439943D01*
X83704614Y-75321635D01*
X83704603Y-75321630D01*
X83469493Y-75240916D01*
X83224293Y-75200000D01*
X82975707Y-75200000D01*
X82730506Y-75240916D01*
X82495396Y-75321630D01*
X82495390Y-75321632D01*
X82276761Y-75439949D01*
X82229942Y-75476388D01*
X82229942Y-75476390D01*
X82928431Y-76174878D01*
X82811542Y-76225651D01*
X82694261Y-76321066D01*
X82607072Y-76444585D01*
X82576645Y-76530197D01*
X81876564Y-75830116D01*
X81776267Y-75983632D01*
X81676412Y-76211282D01*
X81615387Y-76452261D01*
X81615385Y-76452270D01*
X81594859Y-76699994D01*
X81594859Y-76700005D01*
X78105141Y-76700005D01*
X78105141Y-76699994D01*
X78084614Y-76452270D01*
X78084612Y-76452261D01*
X78023587Y-76211282D01*
X77923731Y-75983630D01*
X77823434Y-75830116D01*
X77125929Y-76527622D01*
X77123116Y-76514085D01*
X77053558Y-76379844D01*
X76950362Y-76269348D01*
X76821181Y-76190791D01*
X76769996Y-76176449D01*
X77470056Y-75476389D01*
X77423229Y-75439943D01*
X77204614Y-75321635D01*
X77204603Y-75321630D01*
X76969493Y-75240916D01*
X76724293Y-75200000D01*
X76475707Y-75200000D01*
X76230506Y-75240916D01*
X75995396Y-75321630D01*
X75995390Y-75321632D01*
X75776761Y-75439949D01*
X75729942Y-75476388D01*
X75729942Y-75476390D01*
X76428430Y-76174879D01*
X76311542Y-76225651D01*
X76194261Y-76321066D01*
X76107072Y-76444585D01*
X76076645Y-76530197D01*
X75376564Y-75830116D01*
X75276267Y-75983632D01*
X75176412Y-76211282D01*
X75115387Y-76452261D01*
X75115385Y-76452270D01*
X75094859Y-76699994D01*
X75094859Y-76700005D01*
X71000500Y-76700005D01*
X71000500Y-72200005D01*
X75094357Y-72200005D01*
X75114890Y-72447812D01*
X75114892Y-72447824D01*
X75175936Y-72688881D01*
X75275826Y-72916606D01*
X75411833Y-73124782D01*
X75411836Y-73124785D01*
X75580256Y-73307738D01*
X75776491Y-73460474D01*
X75995190Y-73578828D01*
X76230386Y-73659571D01*
X76475665Y-73700500D01*
X76724335Y-73700500D01*
X76969614Y-73659571D01*
X77204810Y-73578828D01*
X77423509Y-73460474D01*
X77619744Y-73307738D01*
X77788164Y-73124785D01*
X77924173Y-72916607D01*
X78024063Y-72688881D01*
X78085108Y-72447821D01*
X78097911Y-72293313D01*
X78105643Y-72200005D01*
X81594357Y-72200005D01*
X81614890Y-72447812D01*
X81614892Y-72447824D01*
X81675936Y-72688881D01*
X81775826Y-72916606D01*
X81911833Y-73124782D01*
X81911836Y-73124785D01*
X82080256Y-73307738D01*
X82276491Y-73460474D01*
X82495190Y-73578828D01*
X82730386Y-73659571D01*
X82975665Y-73700500D01*
X83224335Y-73700500D01*
X83469614Y-73659571D01*
X83704810Y-73578828D01*
X83923509Y-73460474D01*
X84119744Y-73307738D01*
X84288164Y-73124785D01*
X84424173Y-72916607D01*
X84424175Y-72916603D01*
X84431595Y-72899689D01*
X84476551Y-72846203D01*
X84543287Y-72825514D01*
X84545150Y-72825500D01*
X85689548Y-72825500D01*
X85756587Y-72845185D01*
X85777229Y-72861819D01*
X91134647Y-78219238D01*
X91168132Y-78280561D01*
X91163148Y-78350253D01*
X91121276Y-78406186D01*
X91096792Y-78420468D01*
X91095202Y-78421165D01*
X90876493Y-78539524D01*
X90680257Y-78692261D01*
X90511833Y-78875217D01*
X90375826Y-79083393D01*
X90275936Y-79311118D01*
X90214892Y-79552175D01*
X90214890Y-79552187D01*
X90194357Y-79799994D01*
X90194357Y-79800005D01*
X90214890Y-80047812D01*
X90214892Y-80047824D01*
X90275936Y-80288881D01*
X90375826Y-80516606D01*
X90511833Y-80724782D01*
X90511836Y-80724785D01*
X90680256Y-80907738D01*
X90876491Y-81060474D01*
X91095190Y-81178828D01*
X91330386Y-81259571D01*
X91575665Y-81300500D01*
X91824335Y-81300500D01*
X92069614Y-81259571D01*
X92148631Y-81232443D01*
X92218426Y-81229293D01*
X92273777Y-81259334D01*
X92288933Y-81273567D01*
X92290332Y-81274923D01*
X92310523Y-81295115D01*
X92310527Y-81295118D01*
X92310529Y-81295120D01*
X92316011Y-81299373D01*
X92320443Y-81303157D01*
X92354418Y-81335062D01*
X92371976Y-81344714D01*
X92388233Y-81355393D01*
X92404064Y-81367673D01*
X92423737Y-81376186D01*
X92446833Y-81386182D01*
X92452077Y-81388750D01*
X92492908Y-81411197D01*
X92505523Y-81414435D01*
X92512305Y-81416177D01*
X92530719Y-81422481D01*
X92549104Y-81430438D01*
X92595157Y-81437732D01*
X92600826Y-81438906D01*
X92645981Y-81450500D01*
X92666016Y-81450500D01*
X92685413Y-81452026D01*
X92705196Y-81455160D01*
X92751583Y-81450775D01*
X92757422Y-81450500D01*
X95114548Y-81450500D01*
X95181587Y-81470185D01*
X95202229Y-81486819D01*
X95499194Y-81783784D01*
X95509019Y-81796048D01*
X95509240Y-81795866D01*
X95514210Y-81801874D01*
X95563949Y-81848582D01*
X95565316Y-81849906D01*
X95585529Y-81870119D01*
X95591004Y-81874366D01*
X95595446Y-81878160D01*
X95629415Y-81910060D01*
X95629417Y-81910061D01*
X95629418Y-81910062D01*
X95646976Y-81919714D01*
X95663237Y-81930396D01*
X95679064Y-81942673D01*
X95721823Y-81961176D01*
X95727073Y-81963748D01*
X95767904Y-81986195D01*
X95767908Y-81986197D01*
X95767912Y-81986198D01*
X95787311Y-81991179D01*
X95805722Y-81997483D01*
X95824097Y-82005435D01*
X95824100Y-82005435D01*
X95824105Y-82005438D01*
X95870149Y-82012729D01*
X95875832Y-82013906D01*
X95920981Y-82025500D01*
X95941016Y-82025500D01*
X95960413Y-82027026D01*
X95980196Y-82030160D01*
X96026583Y-82025775D01*
X96032422Y-82025500D01*
X106456166Y-82025500D01*
X106523205Y-82045185D01*
X106568960Y-82097989D01*
X106578904Y-82167147D01*
X106568548Y-82201905D01*
X106553733Y-82233673D01*
X106553730Y-82233682D01*
X106494860Y-82453389D01*
X106494858Y-82453400D01*
X106475034Y-82679997D01*
X106475034Y-82680002D01*
X106494858Y-82906599D01*
X106494860Y-82906610D01*
X106553730Y-83126317D01*
X106553734Y-83126326D01*
X106649865Y-83332481D01*
X106649866Y-83332483D01*
X106700973Y-83405471D01*
X106700973Y-83405472D01*
X107254070Y-82852374D01*
X107256884Y-82865915D01*
X107326442Y-83000156D01*
X107429638Y-83110652D01*
X107558819Y-83189209D01*
X107610002Y-83203549D01*
X107054526Y-83759025D01*
X107054526Y-83759026D01*
X107127512Y-83810131D01*
X107127516Y-83810133D01*
X107186457Y-83837618D01*
X107238896Y-83883790D01*
X107258048Y-83950984D01*
X107237832Y-84017865D01*
X107186457Y-84062382D01*
X107127513Y-84089868D01*
X107054527Y-84140972D01*
X107054526Y-84140973D01*
X107608432Y-84694878D01*
X107491542Y-84745651D01*
X107374261Y-84841066D01*
X107287072Y-84964585D01*
X107256645Y-85050198D01*
X106700973Y-84494526D01*
X106700972Y-84494527D01*
X106649868Y-84567513D01*
X106553734Y-84773673D01*
X106553730Y-84773682D01*
X106494860Y-84993389D01*
X106494858Y-84993400D01*
X106475034Y-85219997D01*
X106475034Y-85220002D01*
X106494858Y-85446599D01*
X106494860Y-85446610D01*
X106553730Y-85666317D01*
X106553734Y-85666326D01*
X106649865Y-85872481D01*
X106649866Y-85872483D01*
X106700973Y-85945471D01*
X106700974Y-85945472D01*
X107254070Y-85392375D01*
X107256884Y-85405915D01*
X107326442Y-85540156D01*
X107429638Y-85650652D01*
X107558819Y-85729209D01*
X107610002Y-85743549D01*
X107054526Y-86299025D01*
X107054526Y-86299026D01*
X107127512Y-86350131D01*
X107127520Y-86350135D01*
X107185865Y-86377342D01*
X107238305Y-86423514D01*
X107257457Y-86490707D01*
X107237242Y-86557589D01*
X107185867Y-86602105D01*
X107184685Y-86602657D01*
X107127264Y-86629433D01*
X106940858Y-86759954D01*
X106779954Y-86920858D01*
X106649432Y-87107265D01*
X106649431Y-87107267D01*
X106553261Y-87313502D01*
X106553258Y-87313511D01*
X106494366Y-87533302D01*
X106494364Y-87533313D01*
X106474532Y-87759998D01*
X106474532Y-87760001D01*
X106494364Y-87986686D01*
X106494366Y-87986697D01*
X106553258Y-88206488D01*
X106553261Y-88206497D01*
X106649431Y-88412732D01*
X106649432Y-88412734D01*
X106779954Y-88599141D01*
X106940858Y-88760045D01*
X106965462Y-88777273D01*
X107009087Y-88831849D01*
X107016281Y-88901348D01*
X106984758Y-88963703D01*
X106924529Y-88999117D01*
X106907593Y-89002138D01*
X106872516Y-89005908D01*
X106737671Y-89056202D01*
X106737664Y-89056206D01*
X106622455Y-89142452D01*
X106622452Y-89142455D01*
X106536206Y-89257664D01*
X106536202Y-89257671D01*
X106485908Y-89392517D01*
X106480716Y-89440817D01*
X106479501Y-89452123D01*
X106479500Y-89452135D01*
X106479500Y-91147870D01*
X106479501Y-91147876D01*
X106485908Y-91207483D01*
X106536202Y-91342328D01*
X106536206Y-91342335D01*
X106622452Y-91457544D01*
X106622455Y-91457547D01*
X106737664Y-91543793D01*
X106737671Y-91543797D01*
X106872517Y-91594091D01*
X106872516Y-91594091D01*
X106879444Y-91594835D01*
X106932127Y-91600500D01*
X108627872Y-91600499D01*
X108687483Y-91594091D01*
X108822331Y-91543796D01*
X108937546Y-91457546D01*
X109023796Y-91342331D01*
X109074091Y-91207483D01*
X109080500Y-91147873D01*
X109080499Y-89452128D01*
X109074091Y-89392517D01*
X109065824Y-89370353D01*
X109023797Y-89257671D01*
X109023793Y-89257664D01*
X108937547Y-89142455D01*
X108937544Y-89142452D01*
X108822335Y-89056206D01*
X108822328Y-89056202D01*
X108687482Y-89005908D01*
X108687483Y-89005908D01*
X108652404Y-89002137D01*
X108587853Y-88975399D01*
X108548005Y-88918006D01*
X108545512Y-88848181D01*
X108581165Y-88788092D01*
X108594539Y-88777272D01*
X108619140Y-88760046D01*
X108780045Y-88599141D01*
X108780045Y-88599140D01*
X108780047Y-88599139D01*
X108910568Y-88412734D01*
X109006739Y-88206496D01*
X109065635Y-87986692D01*
X109085468Y-87760000D01*
X109085422Y-87759478D01*
X109074959Y-87639883D01*
X109065635Y-87533308D01*
X109006739Y-87313504D01*
X108910568Y-87107266D01*
X108780047Y-86920861D01*
X108780045Y-86920858D01*
X108619141Y-86759954D01*
X108433358Y-86629869D01*
X108432734Y-86629432D01*
X108374132Y-86602105D01*
X108321694Y-86555933D01*
X108302543Y-86488739D01*
X108322759Y-86421858D01*
X108374135Y-86377341D01*
X108432482Y-86350133D01*
X108505472Y-86299025D01*
X107951568Y-85745121D01*
X108068458Y-85694349D01*
X108185739Y-85598934D01*
X108272928Y-85475415D01*
X108303354Y-85389801D01*
X108859025Y-85945472D01*
X108910136Y-85872478D01*
X109006264Y-85666331D01*
X109006269Y-85666317D01*
X109065139Y-85446610D01*
X109065141Y-85446599D01*
X109084966Y-85220002D01*
X109084966Y-85219997D01*
X109065141Y-84993400D01*
X109065139Y-84993389D01*
X109006269Y-84773682D01*
X109006265Y-84773673D01*
X108910133Y-84567516D01*
X108910131Y-84567512D01*
X108859026Y-84494526D01*
X108859025Y-84494526D01*
X108305929Y-85047622D01*
X108303116Y-85034085D01*
X108233558Y-84899844D01*
X108130362Y-84789348D01*
X108001181Y-84710791D01*
X107949996Y-84696449D01*
X108505472Y-84140974D01*
X108505471Y-84140973D01*
X108432483Y-84089866D01*
X108432481Y-84089865D01*
X108373543Y-84062382D01*
X108321104Y-84016210D01*
X108301952Y-83949016D01*
X108322168Y-83882135D01*
X108373544Y-83837618D01*
X108432478Y-83810136D01*
X108505472Y-83759025D01*
X107951568Y-83205121D01*
X108068458Y-83154349D01*
X108185739Y-83058934D01*
X108272928Y-82935415D01*
X108303354Y-82849801D01*
X108859025Y-83405472D01*
X108910136Y-83332478D01*
X109006264Y-83126331D01*
X109006269Y-83126317D01*
X109065139Y-82906610D01*
X109065141Y-82906599D01*
X109084966Y-82680002D01*
X109084966Y-82679997D01*
X109065141Y-82453400D01*
X109065139Y-82453389D01*
X109006269Y-82233682D01*
X109006266Y-82233673D01*
X108991452Y-82201905D01*
X108980960Y-82132828D01*
X109009479Y-82069044D01*
X109067956Y-82030804D01*
X109103834Y-82025500D01*
X119917257Y-82025500D01*
X119932877Y-82027224D01*
X119932904Y-82026939D01*
X119940666Y-82027673D01*
X119940666Y-82027672D01*
X119940667Y-82027673D01*
X119943999Y-82027568D01*
X120008847Y-82025531D01*
X120010794Y-82025500D01*
X120039347Y-82025500D01*
X120039350Y-82025500D01*
X120046228Y-82024630D01*
X120052041Y-82024172D01*
X120098627Y-82022709D01*
X120117869Y-82017117D01*
X120136912Y-82013174D01*
X120156792Y-82010664D01*
X120200122Y-81993507D01*
X120205646Y-81991617D01*
X120209396Y-81990527D01*
X120250390Y-81978618D01*
X120267629Y-81968422D01*
X120285103Y-81959862D01*
X120303727Y-81952488D01*
X120303727Y-81952487D01*
X120303732Y-81952486D01*
X120341449Y-81925082D01*
X120346305Y-81921892D01*
X120386420Y-81898170D01*
X120400589Y-81883999D01*
X120415379Y-81871368D01*
X120431587Y-81859594D01*
X120461299Y-81823676D01*
X120465212Y-81819376D01*
X121482771Y-80801819D01*
X121544095Y-80768334D01*
X121570453Y-80765500D01*
X121805812Y-80765500D01*
X121872851Y-80785185D01*
X121907387Y-80818377D01*
X122019954Y-80979141D01*
X122180858Y-81140045D01*
X122180861Y-81140047D01*
X122367266Y-81270568D01*
X122419907Y-81295115D01*
X122425275Y-81297618D01*
X122477714Y-81343791D01*
X122496866Y-81410984D01*
X122476650Y-81477865D01*
X122425275Y-81522382D01*
X122367267Y-81549431D01*
X122367265Y-81549432D01*
X122180858Y-81679954D01*
X122019954Y-81840858D01*
X121889432Y-82027265D01*
X121889431Y-82027267D01*
X121793261Y-82233502D01*
X121793258Y-82233511D01*
X121734366Y-82453302D01*
X121734364Y-82453313D01*
X121714532Y-82679998D01*
X121714532Y-82680001D01*
X121734364Y-82906686D01*
X121734366Y-82906697D01*
X121793258Y-83126488D01*
X121793261Y-83126497D01*
X121889431Y-83332732D01*
X121889432Y-83332734D01*
X122019954Y-83519141D01*
X122180858Y-83680045D01*
X122180861Y-83680047D01*
X122367266Y-83810568D01*
X122425275Y-83837618D01*
X122477714Y-83883791D01*
X122496866Y-83950984D01*
X122476650Y-84017865D01*
X122425275Y-84062382D01*
X122367267Y-84089431D01*
X122367265Y-84089432D01*
X122180858Y-84219954D01*
X122019954Y-84380858D01*
X121889432Y-84567265D01*
X121889431Y-84567267D01*
X121793261Y-84773502D01*
X121793258Y-84773511D01*
X121734366Y-84993302D01*
X121734364Y-84993313D01*
X121714532Y-85219998D01*
X121714532Y-85220001D01*
X121734364Y-85446686D01*
X121734366Y-85446697D01*
X121793258Y-85666488D01*
X121793261Y-85666497D01*
X121889431Y-85872732D01*
X121889432Y-85872734D01*
X122019954Y-86059141D01*
X122180858Y-86220045D01*
X122180861Y-86220047D01*
X122367266Y-86350568D01*
X122425865Y-86377893D01*
X122478305Y-86424065D01*
X122497457Y-86491258D01*
X122477242Y-86558139D01*
X122425867Y-86602657D01*
X122367511Y-86629869D01*
X122294527Y-86680972D01*
X122294526Y-86680973D01*
X122848432Y-87234878D01*
X122731542Y-87285651D01*
X122614261Y-87381066D01*
X122527072Y-87504585D01*
X122496644Y-87590198D01*
X121940973Y-87034526D01*
X121940972Y-87034527D01*
X121889868Y-87107513D01*
X121793734Y-87313673D01*
X121793730Y-87313682D01*
X121734860Y-87533389D01*
X121734858Y-87533400D01*
X121715034Y-87759997D01*
X121715034Y-87760002D01*
X121734858Y-87986599D01*
X121734860Y-87986610D01*
X121793730Y-88206317D01*
X121793734Y-88206326D01*
X121889865Y-88412481D01*
X121889866Y-88412483D01*
X121940973Y-88485471D01*
X121940974Y-88485472D01*
X122494070Y-87932374D01*
X122496884Y-87945915D01*
X122566442Y-88080156D01*
X122669638Y-88190652D01*
X122798819Y-88269209D01*
X122850002Y-88283549D01*
X122294526Y-88839025D01*
X122294526Y-88839026D01*
X122367512Y-88890131D01*
X122367520Y-88890135D01*
X122425865Y-88917342D01*
X122478305Y-88963514D01*
X122497457Y-89030707D01*
X122477242Y-89097589D01*
X122425867Y-89142105D01*
X122367266Y-89169432D01*
X122367264Y-89169433D01*
X122180858Y-89299954D01*
X122019954Y-89460858D01*
X121889432Y-89647265D01*
X121889431Y-89647267D01*
X121793261Y-89853502D01*
X121793258Y-89853511D01*
X121734366Y-90073302D01*
X121734364Y-90073313D01*
X121714532Y-90299998D01*
X121714532Y-90300001D01*
X121734364Y-90526686D01*
X121734366Y-90526697D01*
X121793258Y-90746488D01*
X121793261Y-90746497D01*
X121889431Y-90952732D01*
X121889432Y-90952734D01*
X122019954Y-91139141D01*
X122180858Y-91300045D01*
X122180861Y-91300047D01*
X122367266Y-91430568D01*
X122573504Y-91526739D01*
X122793308Y-91585635D01*
X122955230Y-91599801D01*
X123019998Y-91605468D01*
X123020000Y-91605468D01*
X123020002Y-91605468D01*
X123076807Y-91600498D01*
X123246692Y-91585635D01*
X123466496Y-91526739D01*
X123672734Y-91430568D01*
X123850397Y-91306168D01*
X123896562Y-91286281D01*
X123902432Y-91285074D01*
X123902438Y-91285074D01*
X123935227Y-91274786D01*
X123942840Y-91272918D01*
X123976653Y-91266858D01*
X124033621Y-91244101D01*
X124038053Y-91242524D01*
X124096588Y-91224159D01*
X124126627Y-91207484D01*
X124133708Y-91204122D01*
X124165617Y-91191377D01*
X124216854Y-91157608D01*
X124220851Y-91155187D01*
X124274502Y-91125409D01*
X124300568Y-91103030D01*
X124306843Y-91098300D01*
X124335519Y-91079402D01*
X124378892Y-91036027D01*
X124382350Y-91032823D01*
X124414760Y-91005000D01*
X124428895Y-90992866D01*
X124449928Y-90965691D01*
X124455098Y-90959821D01*
X124800321Y-90614598D01*
X124861642Y-90581115D01*
X124931334Y-90586099D01*
X124987267Y-90627971D01*
X125011684Y-90693435D01*
X125012000Y-90702281D01*
X125012000Y-92860370D01*
X125012001Y-92860376D01*
X125018408Y-92919983D01*
X125068702Y-93054828D01*
X125068706Y-93054835D01*
X125154952Y-93170044D01*
X125154955Y-93170047D01*
X125270164Y-93256293D01*
X125270171Y-93256297D01*
X125405017Y-93306591D01*
X125405016Y-93306591D01*
X125411944Y-93307335D01*
X125464627Y-93313000D01*
X128360372Y-93312999D01*
X128419983Y-93306591D01*
X128554831Y-93256296D01*
X128670046Y-93170046D01*
X128756296Y-93054831D01*
X128806591Y-92919983D01*
X128813000Y-92860373D01*
X128813000Y-92860370D01*
X139212000Y-92860370D01*
X139212001Y-92860376D01*
X139218408Y-92919983D01*
X139268702Y-93054828D01*
X139268706Y-93054835D01*
X139354952Y-93170044D01*
X139354955Y-93170047D01*
X139470164Y-93256293D01*
X139470171Y-93256297D01*
X139605017Y-93306591D01*
X139605016Y-93306591D01*
X139611944Y-93307335D01*
X139664627Y-93313000D01*
X142560372Y-93312999D01*
X142619983Y-93306591D01*
X142754831Y-93256296D01*
X142870046Y-93170046D01*
X142956296Y-93054831D01*
X143006591Y-92919983D01*
X143013000Y-92860373D01*
X143012999Y-89964628D01*
X143006591Y-89905017D01*
X142956296Y-89770169D01*
X142956295Y-89770168D01*
X142956293Y-89770164D01*
X142870047Y-89654955D01*
X142870044Y-89654952D01*
X142754835Y-89568706D01*
X142754828Y-89568702D01*
X142619982Y-89518408D01*
X142619983Y-89518408D01*
X142560383Y-89512001D01*
X142560381Y-89512000D01*
X142560373Y-89512000D01*
X142560364Y-89512000D01*
X139664629Y-89512000D01*
X139664623Y-89512001D01*
X139605016Y-89518408D01*
X139470171Y-89568702D01*
X139470164Y-89568706D01*
X139354955Y-89654952D01*
X139354952Y-89654955D01*
X139268706Y-89770164D01*
X139268702Y-89770171D01*
X139218408Y-89905017D01*
X139212001Y-89964616D01*
X139212001Y-89964623D01*
X139212000Y-89964635D01*
X139212000Y-92860370D01*
X128813000Y-92860370D01*
X128812999Y-89964628D01*
X128806591Y-89905017D01*
X128756296Y-89770169D01*
X128756295Y-89770168D01*
X128756293Y-89770164D01*
X128670047Y-89654955D01*
X128670044Y-89654952D01*
X128554835Y-89568706D01*
X128554828Y-89568702D01*
X128419982Y-89518408D01*
X128419983Y-89518408D01*
X128360383Y-89512001D01*
X128360381Y-89512000D01*
X128360373Y-89512000D01*
X128360365Y-89512000D01*
X126202281Y-89512000D01*
X126135242Y-89492315D01*
X126089487Y-89439511D01*
X126079543Y-89370353D01*
X126108568Y-89306797D01*
X126114600Y-89300319D01*
X126272465Y-89142455D01*
X126583100Y-88831819D01*
X126644424Y-88798334D01*
X126670782Y-88795500D01*
X146801849Y-88795500D01*
X146868888Y-88815185D01*
X146914643Y-88867989D01*
X146924587Y-88937147D01*
X146914748Y-88970781D01*
X146860377Y-89090480D01*
X146805400Y-89308667D01*
X146795000Y-89440803D01*
X146795000Y-91005000D01*
X148135671Y-91005000D01*
X148095000Y-91170005D01*
X148095000Y-91339995D01*
X148135671Y-91505000D01*
X146795001Y-91505000D01*
X146795001Y-93069197D01*
X146805400Y-93201332D01*
X146860377Y-93419519D01*
X146953428Y-93624374D01*
X146953431Y-93624380D01*
X147081559Y-93809323D01*
X147081569Y-93809335D01*
X147240664Y-93968430D01*
X147240676Y-93968440D01*
X147425619Y-94096568D01*
X147425625Y-94096571D01*
X147630480Y-94189622D01*
X147848667Y-94244599D01*
X147980810Y-94254999D01*
X148544999Y-94254999D01*
X148545000Y-94254998D01*
X148545000Y-91908837D01*
X148626249Y-91939651D01*
X148752660Y-91955000D01*
X148837340Y-91955000D01*
X148963751Y-91939651D01*
X149045000Y-91908837D01*
X149045000Y-94254999D01*
X149609182Y-94254999D01*
X149609197Y-94254998D01*
X149741332Y-94244599D01*
X149959519Y-94189622D01*
X150164374Y-94096571D01*
X150164380Y-94096568D01*
X150349323Y-93968440D01*
X150349335Y-93968430D01*
X150508430Y-93809335D01*
X150508440Y-93809323D01*
X150636568Y-93624380D01*
X150636571Y-93624374D01*
X150729622Y-93419519D01*
X150784599Y-93201332D01*
X150794999Y-93069196D01*
X150795000Y-93069184D01*
X150795000Y-91505000D01*
X149454329Y-91505000D01*
X149495000Y-91339995D01*
X149495000Y-91170005D01*
X149454329Y-91005000D01*
X150794999Y-91005000D01*
X150794999Y-89440817D01*
X150794998Y-89440802D01*
X150784599Y-89308667D01*
X150729622Y-89090480D01*
X150675252Y-88970781D01*
X150665449Y-88901603D01*
X150694604Y-88838106D01*
X150753459Y-88800452D01*
X150788151Y-88795500D01*
X153801301Y-88795500D01*
X153868340Y-88815185D01*
X153914095Y-88867989D01*
X153924039Y-88937147D01*
X153914200Y-88970778D01*
X153899957Y-89002137D01*
X153859903Y-89090318D01*
X153859902Y-89090321D01*
X153804905Y-89308579D01*
X153804904Y-89308586D01*
X153794500Y-89440777D01*
X153794500Y-93069208D01*
X153794501Y-93069223D01*
X153804904Y-93201413D01*
X153804905Y-93201420D01*
X153859902Y-93419678D01*
X153859903Y-93419681D01*
X153952991Y-93624622D01*
X153952997Y-93624632D01*
X154081174Y-93809645D01*
X154081178Y-93809650D01*
X154081181Y-93809654D01*
X154240346Y-93968819D01*
X154240350Y-93968822D01*
X154240354Y-93968825D01*
X154315810Y-94021101D01*
X154425374Y-94097007D01*
X154630317Y-94190096D01*
X154630321Y-94190097D01*
X154848579Y-94245094D01*
X154848581Y-94245094D01*
X154848588Y-94245096D01*
X154980783Y-94255500D01*
X156609216Y-94255499D01*
X156741412Y-94245096D01*
X156959683Y-94190096D01*
X157164626Y-94097007D01*
X157349654Y-93968819D01*
X157508819Y-93809654D01*
X157637007Y-93624626D01*
X157730096Y-93419683D01*
X157785096Y-93201412D01*
X157795500Y-93069217D01*
X157795500Y-92575001D01*
X173519532Y-92575001D01*
X173539364Y-92801686D01*
X173539366Y-92801697D01*
X173598258Y-93021488D01*
X173598261Y-93021497D01*
X173694431Y-93227732D01*
X173694432Y-93227734D01*
X173824954Y-93414141D01*
X173985858Y-93575045D01*
X173985861Y-93575047D01*
X174172266Y-93705568D01*
X174378504Y-93801739D01*
X174378509Y-93801740D01*
X174378511Y-93801741D01*
X174431415Y-93815916D01*
X174598308Y-93860635D01*
X174768214Y-93875499D01*
X174768215Y-93875500D01*
X174768216Y-93875500D01*
X174881785Y-93875500D01*
X174881785Y-93875499D01*
X175051692Y-93860635D01*
X175271496Y-93801739D01*
X175477734Y-93705568D01*
X175664139Y-93575047D01*
X175825047Y-93414139D01*
X175955568Y-93227734D01*
X176051739Y-93021496D01*
X176110635Y-92801692D01*
X176130320Y-92576692D01*
X176130468Y-92575001D01*
X176130468Y-92574998D01*
X176110783Y-92350000D01*
X176110635Y-92348308D01*
X176051739Y-92128504D01*
X175955568Y-91922266D01*
X175825047Y-91735861D01*
X175825045Y-91735858D01*
X175664141Y-91574954D01*
X175477734Y-91444432D01*
X175477732Y-91444431D01*
X175271497Y-91348261D01*
X175271488Y-91348258D01*
X175051697Y-91289366D01*
X175051687Y-91289364D01*
X174881785Y-91274500D01*
X174881784Y-91274500D01*
X174768216Y-91274500D01*
X174768215Y-91274500D01*
X174598312Y-91289364D01*
X174598302Y-91289366D01*
X174378511Y-91348258D01*
X174378502Y-91348261D01*
X174172267Y-91444431D01*
X174172265Y-91444432D01*
X173985858Y-91574954D01*
X173824954Y-91735858D01*
X173694432Y-91922265D01*
X173694431Y-91922267D01*
X173598261Y-92128502D01*
X173598258Y-92128511D01*
X173539366Y-92348302D01*
X173539364Y-92348313D01*
X173519532Y-92574998D01*
X173519532Y-92575001D01*
X157795500Y-92575001D01*
X157795499Y-89440784D01*
X157785096Y-89308588D01*
X157783012Y-89300319D01*
X157730097Y-89090321D01*
X157730096Y-89090318D01*
X157722348Y-89073261D01*
X157637007Y-88885374D01*
X157578173Y-88800452D01*
X157508825Y-88700354D01*
X157508822Y-88700350D01*
X157508819Y-88700346D01*
X157349654Y-88541181D01*
X157349650Y-88541178D01*
X157349645Y-88541174D01*
X157164632Y-88412997D01*
X157164630Y-88412995D01*
X157164626Y-88412993D01*
X157164056Y-88412734D01*
X156959680Y-88319902D01*
X156959677Y-88319901D01*
X156872914Y-88298039D01*
X156812716Y-88262571D01*
X156781250Y-88200188D01*
X156780368Y-88193991D01*
X156780075Y-88192567D01*
X156780074Y-88192564D01*
X156780074Y-88192562D01*
X156769784Y-88159768D01*
X156767917Y-88152155D01*
X156761858Y-88118347D01*
X156761857Y-88118345D01*
X156754786Y-88100644D01*
X156739100Y-88061374D01*
X156737521Y-88056938D01*
X156724493Y-88015415D01*
X156719159Y-87998412D01*
X156719158Y-87998410D01*
X156719157Y-87998407D01*
X156709000Y-87980110D01*
X156702485Y-87968371D01*
X156699117Y-87961278D01*
X156686378Y-87929386D01*
X156686377Y-87929383D01*
X156652620Y-87878163D01*
X156650180Y-87874134D01*
X156639379Y-87854675D01*
X156620409Y-87820498D01*
X156620407Y-87820495D01*
X156598033Y-87794434D01*
X156593302Y-87788159D01*
X156574402Y-87759481D01*
X156531033Y-87716112D01*
X156527829Y-87712656D01*
X156487867Y-87666106D01*
X156460698Y-87645075D01*
X156454804Y-87639883D01*
X155912011Y-87097091D01*
X155910914Y-87095966D01*
X155850061Y-87031949D01*
X155850060Y-87031948D01*
X155850059Y-87031947D01*
X155822204Y-87012559D01*
X155799709Y-86996902D01*
X155795946Y-86994064D01*
X155748413Y-86955305D01*
X155748406Y-86955300D01*
X155717959Y-86939397D01*
X155711251Y-86935334D01*
X155683049Y-86915705D01*
X155683046Y-86915703D01*
X155683045Y-86915703D01*
X155683041Y-86915701D01*
X155626680Y-86891514D01*
X155622424Y-86889493D01*
X155568057Y-86861094D01*
X155568050Y-86861091D01*
X155568049Y-86861091D01*
X155562008Y-86859362D01*
X155535030Y-86851642D01*
X155527630Y-86849008D01*
X155496057Y-86835459D01*
X155496058Y-86835459D01*
X155435966Y-86823109D01*
X155431391Y-86821986D01*
X155372420Y-86805113D01*
X155372425Y-86805113D01*
X155338158Y-86802503D01*
X155330380Y-86801412D01*
X155296742Y-86794500D01*
X155296741Y-86794500D01*
X155235402Y-86794500D01*
X155230695Y-86794321D01*
X155225121Y-86793896D01*
X155169524Y-86789662D01*
X155149589Y-86792201D01*
X155135440Y-86794003D01*
X155127611Y-86794500D01*
X126218493Y-86794500D01*
X126216930Y-86794480D01*
X126128637Y-86792243D01*
X126128628Y-86792243D01*
X126077476Y-86801412D01*
X126068254Y-86803064D01*
X126063595Y-86803718D01*
X126002564Y-86809925D01*
X126002562Y-86809926D01*
X125969780Y-86820210D01*
X125962156Y-86822081D01*
X125959057Y-86822637D01*
X125928349Y-86828141D01*
X125871381Y-86850895D01*
X125866945Y-86852474D01*
X125808414Y-86870840D01*
X125808410Y-86870842D01*
X125778378Y-86887510D01*
X125771284Y-86890879D01*
X125739382Y-86903623D01*
X125739377Y-86903625D01*
X125688156Y-86937381D01*
X125684128Y-86939822D01*
X125630501Y-86969588D01*
X125604434Y-86991965D01*
X125598165Y-86996692D01*
X125569484Y-87015595D01*
X125569478Y-87015600D01*
X125526109Y-87058968D01*
X125522655Y-87062169D01*
X125476102Y-87102136D01*
X125455076Y-87129298D01*
X125449885Y-87135192D01*
X124517918Y-88067159D01*
X124456595Y-88100644D01*
X124386903Y-88095660D01*
X124330970Y-88053788D01*
X124306553Y-87988324D01*
X124306709Y-87968670D01*
X124324966Y-87760000D01*
X124324966Y-87759997D01*
X124305141Y-87533400D01*
X124305139Y-87533389D01*
X124246269Y-87313682D01*
X124246265Y-87313673D01*
X124150133Y-87107516D01*
X124150131Y-87107512D01*
X124099026Y-87034526D01*
X124099025Y-87034526D01*
X123545929Y-87587622D01*
X123543116Y-87574085D01*
X123473558Y-87439844D01*
X123370362Y-87329348D01*
X123241181Y-87250791D01*
X123189996Y-87236449D01*
X123745472Y-86680974D01*
X123745471Y-86680973D01*
X123672483Y-86629866D01*
X123672481Y-86629865D01*
X123614133Y-86602657D01*
X123561694Y-86556484D01*
X123542542Y-86489291D01*
X123562758Y-86422410D01*
X123614129Y-86377895D01*
X123672734Y-86350568D01*
X123859139Y-86220047D01*
X124020047Y-86059139D01*
X124150568Y-85872734D01*
X124246739Y-85666496D01*
X124305635Y-85446692D01*
X124325468Y-85220000D01*
X124305635Y-84993308D01*
X124250815Y-84788717D01*
X124246741Y-84773511D01*
X124246738Y-84773502D01*
X124217495Y-84710791D01*
X124150568Y-84567266D01*
X124020047Y-84380861D01*
X124020045Y-84380858D01*
X123859141Y-84219954D01*
X123672734Y-84089432D01*
X123672728Y-84089429D01*
X123614725Y-84062382D01*
X123562285Y-84016210D01*
X123543133Y-83949017D01*
X123563348Y-83882135D01*
X123614725Y-83837618D01*
X123672734Y-83810568D01*
X123859139Y-83680047D01*
X124020047Y-83519139D01*
X124150568Y-83332734D01*
X124246739Y-83126496D01*
X124305635Y-82906692D01*
X124325468Y-82680000D01*
X124305635Y-82453308D01*
X124246739Y-82233504D01*
X124150568Y-82027266D01*
X124040534Y-81870120D01*
X124020045Y-81840858D01*
X123859141Y-81679954D01*
X123672734Y-81549432D01*
X123672728Y-81549429D01*
X123614725Y-81522382D01*
X123562285Y-81476210D01*
X123543133Y-81409017D01*
X123563348Y-81342135D01*
X123614725Y-81297618D01*
X123620093Y-81295115D01*
X123672734Y-81270568D01*
X123859139Y-81140047D01*
X124020047Y-80979139D01*
X124150568Y-80792734D01*
X124246739Y-80586496D01*
X124305635Y-80366692D01*
X124325468Y-80140000D01*
X124305635Y-79913308D01*
X124252559Y-79715224D01*
X124246741Y-79693511D01*
X124246738Y-79693502D01*
X124222016Y-79640486D01*
X124150568Y-79487266D01*
X124020047Y-79300861D01*
X124020045Y-79300858D01*
X123859141Y-79139954D01*
X123672734Y-79009432D01*
X123672728Y-79009429D01*
X123645038Y-78996517D01*
X123614724Y-78982381D01*
X123562285Y-78936210D01*
X123543133Y-78869017D01*
X123563348Y-78802135D01*
X123614725Y-78757618D01*
X123672734Y-78730568D01*
X123859139Y-78600047D01*
X124020047Y-78439139D01*
X124150568Y-78252734D01*
X124246739Y-78046496D01*
X124305635Y-77826692D01*
X124325468Y-77600000D01*
X124305635Y-77373308D01*
X124246739Y-77153504D01*
X124150568Y-76947266D01*
X124020047Y-76760861D01*
X124020045Y-76760858D01*
X123859141Y-76599954D01*
X123672734Y-76469432D01*
X123672728Y-76469429D01*
X123635911Y-76452261D01*
X123614724Y-76442381D01*
X123562285Y-76396210D01*
X123543133Y-76329017D01*
X123563348Y-76262135D01*
X123614725Y-76217618D01*
X123672734Y-76190568D01*
X123859139Y-76060047D01*
X124020047Y-75899139D01*
X124150568Y-75712734D01*
X124246739Y-75506496D01*
X124305635Y-75286692D01*
X124325468Y-75060000D01*
X124305635Y-74833308D01*
X124246739Y-74613504D01*
X124150568Y-74407266D01*
X124020047Y-74220861D01*
X124020045Y-74220858D01*
X123859141Y-74059954D01*
X123672734Y-73929432D01*
X123672728Y-73929429D01*
X123614725Y-73902382D01*
X123562285Y-73856210D01*
X123543133Y-73789017D01*
X123563348Y-73722135D01*
X123614725Y-73677618D01*
X123672734Y-73650568D01*
X123859139Y-73520047D01*
X124020047Y-73359139D01*
X124150568Y-73172734D01*
X124246739Y-72966496D01*
X124305635Y-72746692D01*
X124325468Y-72520000D01*
X124322745Y-72488881D01*
X124305635Y-72293313D01*
X124305635Y-72293308D01*
X124246739Y-72073504D01*
X124150568Y-71867266D01*
X124020047Y-71680861D01*
X124020045Y-71680858D01*
X123859141Y-71519954D01*
X123672734Y-71389432D01*
X123672728Y-71389429D01*
X123614725Y-71362382D01*
X123562285Y-71316210D01*
X123543133Y-71249017D01*
X123563348Y-71182135D01*
X123614725Y-71137618D01*
X123672734Y-71110568D01*
X123859139Y-70980047D01*
X124020047Y-70819139D01*
X124150568Y-70632734D01*
X124246739Y-70426496D01*
X124305635Y-70206692D01*
X124325468Y-69980000D01*
X124305635Y-69753308D01*
X124246739Y-69533504D01*
X124150568Y-69327266D01*
X124020047Y-69140861D01*
X124020045Y-69140858D01*
X123859141Y-68979954D01*
X123672734Y-68849432D01*
X123672728Y-68849429D01*
X123614725Y-68822382D01*
X123562285Y-68776210D01*
X123543133Y-68709017D01*
X123563348Y-68642135D01*
X123614725Y-68597618D01*
X123672734Y-68570568D01*
X123859139Y-68440047D01*
X124020047Y-68279139D01*
X124150568Y-68092734D01*
X124246739Y-67886496D01*
X124305635Y-67666692D01*
X124325468Y-67440000D01*
X124321968Y-67400000D01*
X124305635Y-67213313D01*
X124305635Y-67213308D01*
X124249853Y-67005127D01*
X124246741Y-66993511D01*
X124246740Y-66993510D01*
X124246739Y-66993504D01*
X124221148Y-66938625D01*
X124210657Y-66869551D01*
X124239176Y-66805767D01*
X124297652Y-66767527D01*
X124367520Y-66766972D01*
X124374486Y-66769182D01*
X124420737Y-66785366D01*
X124420743Y-66785367D01*
X124420745Y-66785368D01*
X124420746Y-66785368D01*
X124420750Y-66785369D01*
X124599996Y-66805565D01*
X124599999Y-66805565D01*
X124599999Y-66805564D01*
X124600000Y-66805565D01*
X124601188Y-66805431D01*
X124601953Y-66805565D01*
X124606964Y-66805565D01*
X124606964Y-66806442D01*
X124670011Y-66817481D01*
X124721393Y-66864826D01*
X124739022Y-66932436D01*
X124731262Y-66971982D01*
X124718904Y-67005116D01*
X124718901Y-67005127D01*
X124712500Y-67064655D01*
X124712499Y-67064672D01*
X124712500Y-68262500D01*
X125884200Y-68262500D01*
X125857056Y-68340075D01*
X125837628Y-68512500D01*
X125857056Y-68684925D01*
X125884200Y-68762500D01*
X124712500Y-68762500D01*
X124712499Y-69960327D01*
X124712500Y-69960344D01*
X124718901Y-70019872D01*
X124718903Y-70019879D01*
X124769145Y-70154586D01*
X124769149Y-70154593D01*
X124855309Y-70269687D01*
X124855312Y-70269690D01*
X124970406Y-70355850D01*
X124970413Y-70355854D01*
X125105120Y-70406096D01*
X125105127Y-70406098D01*
X125164655Y-70412499D01*
X125164672Y-70412500D01*
X126362500Y-70412500D01*
X126362500Y-69240799D01*
X126440075Y-69267944D01*
X126569261Y-69282500D01*
X126655739Y-69282500D01*
X126784925Y-69267944D01*
X126862499Y-69240799D01*
X126862500Y-70412500D01*
X128060328Y-70412500D01*
X128060344Y-70412499D01*
X128119872Y-70406098D01*
X128119876Y-70406097D01*
X128262898Y-70352753D01*
X128263576Y-70354570D01*
X128320806Y-70342115D01*
X128361532Y-70354072D01*
X128361859Y-70353197D01*
X128505017Y-70406591D01*
X128505016Y-70406591D01*
X128511944Y-70407335D01*
X128564627Y-70413000D01*
X131460372Y-70412999D01*
X131519983Y-70406591D01*
X131654831Y-70356296D01*
X131770046Y-70270046D01*
X131856296Y-70154831D01*
X131906591Y-70019983D01*
X131913000Y-69960373D01*
X131913000Y-69960370D01*
X135712000Y-69960370D01*
X135712001Y-69960376D01*
X135718408Y-70019983D01*
X135768702Y-70154828D01*
X135768706Y-70154835D01*
X135854952Y-70270044D01*
X135854955Y-70270047D01*
X135970164Y-70356293D01*
X135970171Y-70356297D01*
X136105017Y-70406591D01*
X136105016Y-70406591D01*
X136111944Y-70407335D01*
X136164627Y-70413000D01*
X139060372Y-70412999D01*
X139119983Y-70406591D01*
X139154803Y-70393604D01*
X139254829Y-70356297D01*
X139254829Y-70356296D01*
X139254831Y-70356296D01*
X139288189Y-70331323D01*
X139353651Y-70306906D01*
X139421925Y-70321757D01*
X139436805Y-70331320D01*
X139470169Y-70356296D01*
X139470170Y-70356296D01*
X139470170Y-70356297D01*
X139605017Y-70406591D01*
X139605016Y-70406591D01*
X139611944Y-70407335D01*
X139664627Y-70413000D01*
X142560372Y-70412999D01*
X142619983Y-70406591D01*
X142754831Y-70356296D01*
X142870046Y-70270046D01*
X142956296Y-70154831D01*
X143006591Y-70019983D01*
X143013000Y-69960373D01*
X143012999Y-67064628D01*
X143006591Y-67005017D01*
X143005256Y-67001439D01*
X142956297Y-66870171D01*
X142956293Y-66870164D01*
X142870047Y-66754955D01*
X142870044Y-66754952D01*
X142754835Y-66668706D01*
X142754828Y-66668702D01*
X142619982Y-66618408D01*
X142619983Y-66618408D01*
X142560383Y-66612001D01*
X142560381Y-66612000D01*
X142560373Y-66612000D01*
X142560364Y-66612000D01*
X139664629Y-66612000D01*
X139664623Y-66612001D01*
X139605016Y-66618408D01*
X139470171Y-66668702D01*
X139470169Y-66668703D01*
X139436810Y-66693676D01*
X139371345Y-66718092D01*
X139303072Y-66703240D01*
X139288190Y-66693676D01*
X139254830Y-66668703D01*
X139254828Y-66668702D01*
X139119982Y-66618408D01*
X139119983Y-66618408D01*
X139060383Y-66612001D01*
X139060381Y-66612000D01*
X139060373Y-66612000D01*
X139060364Y-66612000D01*
X136164629Y-66612000D01*
X136164623Y-66612001D01*
X136105016Y-66618408D01*
X135970171Y-66668702D01*
X135970164Y-66668706D01*
X135854955Y-66754952D01*
X135854952Y-66754955D01*
X135768706Y-66870164D01*
X135768702Y-66870171D01*
X135718408Y-67005017D01*
X135712407Y-67060841D01*
X135712001Y-67064623D01*
X135712000Y-67064635D01*
X135712000Y-69960370D01*
X131913000Y-69960370D01*
X131912999Y-67064628D01*
X131906591Y-67005017D01*
X131905256Y-67001439D01*
X131856297Y-66870171D01*
X131856293Y-66870164D01*
X131770047Y-66754955D01*
X131770044Y-66754952D01*
X131654835Y-66668706D01*
X131654828Y-66668702D01*
X131519982Y-66618408D01*
X131519983Y-66618408D01*
X131460383Y-66612001D01*
X131460381Y-66612000D01*
X131460373Y-66612000D01*
X131460364Y-66612000D01*
X128564629Y-66612000D01*
X128564623Y-66612001D01*
X128505016Y-66618408D01*
X128361859Y-66671803D01*
X128361274Y-66670234D01*
X128303124Y-66682883D01*
X128263294Y-66671186D01*
X128262899Y-66672246D01*
X128119879Y-66618903D01*
X128119872Y-66618901D01*
X128060344Y-66612500D01*
X126862500Y-66612500D01*
X126862499Y-67784200D01*
X126784925Y-67757056D01*
X126655739Y-67742500D01*
X126569261Y-67742500D01*
X126440075Y-67757056D01*
X126362500Y-67784200D01*
X126362500Y-66612500D01*
X125384910Y-66612500D01*
X125317871Y-66592815D01*
X125272116Y-66540011D01*
X125262172Y-66470853D01*
X125279917Y-66422527D01*
X125325788Y-66349524D01*
X125339817Y-66309432D01*
X125385368Y-66179255D01*
X125393871Y-66103788D01*
X125405565Y-66000003D01*
X125405565Y-65999996D01*
X125385369Y-65820750D01*
X125385368Y-65820745D01*
X125370700Y-65778827D01*
X125325789Y-65650478D01*
X125229816Y-65497738D01*
X125102262Y-65370184D01*
X125085408Y-65359594D01*
X124949523Y-65274211D01*
X124779254Y-65214631D01*
X124779249Y-65214630D01*
X124600004Y-65194435D01*
X124599996Y-65194435D01*
X124447340Y-65211634D01*
X124378518Y-65199579D01*
X124327139Y-65152230D01*
X124309515Y-65084619D01*
X124309929Y-65077606D01*
X124325468Y-64900000D01*
X124325468Y-64899998D01*
X124315947Y-64791177D01*
X124305635Y-64673308D01*
X124246739Y-64453504D01*
X124150568Y-64247266D01*
X124020047Y-64060861D01*
X124020045Y-64060858D01*
X123859141Y-63899954D01*
X123672735Y-63769433D01*
X123672736Y-63769433D01*
X123672734Y-63769432D01*
X123614722Y-63742380D01*
X123562284Y-63696208D01*
X123543133Y-63629014D01*
X123563349Y-63562133D01*
X123614721Y-63517619D01*
X123672734Y-63490568D01*
X123859139Y-63360047D01*
X124020047Y-63199139D01*
X124150568Y-63012734D01*
X124246739Y-62806496D01*
X124305635Y-62586692D01*
X124325468Y-62360000D01*
X124305635Y-62133308D01*
X124246739Y-61913504D01*
X124183973Y-61778904D01*
X124173482Y-61709827D01*
X124202002Y-61646043D01*
X124260478Y-61607804D01*
X124296356Y-61602500D01*
X138866548Y-61602500D01*
X138933587Y-61622185D01*
X138954229Y-61638819D01*
X141899197Y-64583788D01*
X141909022Y-64596051D01*
X141909243Y-64595869D01*
X141914211Y-64601874D01*
X141963932Y-64648566D01*
X141965332Y-64649923D01*
X141985523Y-64670115D01*
X141985527Y-64670118D01*
X141985529Y-64670120D01*
X141991011Y-64674373D01*
X141995443Y-64678157D01*
X142029418Y-64710062D01*
X142046976Y-64719714D01*
X142063235Y-64730395D01*
X142079064Y-64742673D01*
X142121838Y-64761182D01*
X142127056Y-64763738D01*
X142167908Y-64786197D01*
X142187316Y-64791180D01*
X142205717Y-64797480D01*
X142224104Y-64805437D01*
X142267488Y-64812308D01*
X142270119Y-64812725D01*
X142275839Y-64813909D01*
X142320981Y-64825500D01*
X142341016Y-64825500D01*
X142360414Y-64827026D01*
X142380194Y-64830159D01*
X142380195Y-64830160D01*
X142380195Y-64830159D01*
X142380196Y-64830160D01*
X142426583Y-64825775D01*
X142432422Y-64825500D01*
X150689548Y-64825500D01*
X150756587Y-64845185D01*
X150777228Y-64861818D01*
X151138182Y-65222772D01*
X151171666Y-65284093D01*
X151174500Y-65310451D01*
X151174500Y-71355145D01*
X151155494Y-71421117D01*
X151074211Y-71550476D01*
X151014631Y-71720745D01*
X151014630Y-71720750D01*
X150994435Y-71899996D01*
X150994435Y-71900003D01*
X151014630Y-72079249D01*
X151014631Y-72079254D01*
X151074211Y-72249523D01*
X151170184Y-72402262D01*
X151297738Y-72529816D01*
X151450478Y-72625789D01*
X151620745Y-72685367D01*
X151620745Y-72685368D01*
X151620750Y-72685369D01*
X151799996Y-72705565D01*
X151800000Y-72705565D01*
X151800004Y-72705565D01*
X151979249Y-72685369D01*
X151979252Y-72685368D01*
X151979255Y-72685368D01*
X152149522Y-72625789D01*
X152302262Y-72529816D01*
X152429816Y-72402262D01*
X152525789Y-72249522D01*
X152585368Y-72079255D01*
X152585369Y-72079249D01*
X152605565Y-71900003D01*
X152605565Y-71899996D01*
X152585369Y-71720750D01*
X152585368Y-71720745D01*
X152563176Y-71657325D01*
X152525789Y-71550478D01*
X152506609Y-71519954D01*
X152444506Y-71421117D01*
X152425500Y-71355145D01*
X152425500Y-70509492D01*
X152445185Y-70442453D01*
X152497989Y-70396698D01*
X152567147Y-70386754D01*
X152580327Y-70389385D01*
X152587315Y-70391179D01*
X152605719Y-70397481D01*
X152624104Y-70405438D01*
X152670157Y-70412732D01*
X152675826Y-70413906D01*
X152720981Y-70425500D01*
X152741016Y-70425500D01*
X152760413Y-70427026D01*
X152780196Y-70430160D01*
X152826583Y-70425775D01*
X152832422Y-70425500D01*
X159089548Y-70425500D01*
X159156587Y-70445185D01*
X159177229Y-70461819D01*
X159938181Y-71222771D01*
X159971666Y-71284094D01*
X159974500Y-71310452D01*
X159974500Y-78517255D01*
X159972775Y-78532872D01*
X159973061Y-78532899D01*
X159972326Y-78540666D01*
X159974469Y-78608846D01*
X159974500Y-78610793D01*
X159974500Y-78639343D01*
X159974501Y-78639360D01*
X159975368Y-78646231D01*
X159975826Y-78652050D01*
X159977290Y-78698624D01*
X159977291Y-78698627D01*
X159982880Y-78717867D01*
X159986824Y-78736911D01*
X159989336Y-78756791D01*
X160006490Y-78800119D01*
X160008382Y-78805647D01*
X160021381Y-78850388D01*
X160031580Y-78867634D01*
X160040136Y-78885100D01*
X160047514Y-78903732D01*
X160071110Y-78936210D01*
X160074898Y-78941423D01*
X160078106Y-78946307D01*
X160101827Y-78986416D01*
X160101833Y-78986424D01*
X160115990Y-79000580D01*
X160128628Y-79015376D01*
X160140405Y-79031586D01*
X160140406Y-79031587D01*
X160165338Y-79052212D01*
X160204446Y-79110112D01*
X160209518Y-79133873D01*
X160214630Y-79179249D01*
X160274210Y-79349521D01*
X160293786Y-79380676D01*
X160370184Y-79502262D01*
X160497738Y-79629816D01*
X160578294Y-79680433D01*
X160630969Y-79713531D01*
X160650478Y-79725789D01*
X160798377Y-79777541D01*
X160820745Y-79785368D01*
X160820750Y-79785369D01*
X160999996Y-79805565D01*
X161000000Y-79805565D01*
X161000004Y-79805565D01*
X161179249Y-79785369D01*
X161179252Y-79785368D01*
X161179255Y-79785368D01*
X161349522Y-79725789D01*
X161502262Y-79629816D01*
X161629816Y-79502262D01*
X161725789Y-79349522D01*
X161785368Y-79179255D01*
X161789796Y-79139954D01*
X161805565Y-79000003D01*
X161805565Y-78999996D01*
X161785369Y-78820750D01*
X161785368Y-78820745D01*
X161762990Y-78756792D01*
X161725789Y-78650478D01*
X161723120Y-78646231D01*
X161629815Y-78497737D01*
X161502262Y-78370184D01*
X161349524Y-78274212D01*
X161349523Y-78274211D01*
X161308544Y-78259872D01*
X161251769Y-78219150D01*
X161226022Y-78154197D01*
X161225500Y-78142831D01*
X161225500Y-71082737D01*
X161227224Y-71067123D01*
X161226938Y-71067096D01*
X161227672Y-71059333D01*
X161225531Y-70991171D01*
X161225500Y-70989224D01*
X161225500Y-70960651D01*
X161225500Y-70960650D01*
X161224629Y-70953759D01*
X161224172Y-70947945D01*
X161223907Y-70939524D01*
X161222709Y-70901373D01*
X161220061Y-70892261D01*
X161217122Y-70882144D01*
X161213174Y-70863084D01*
X161210664Y-70843208D01*
X161193507Y-70799875D01*
X161191619Y-70794359D01*
X161178619Y-70749612D01*
X161168418Y-70732363D01*
X161159860Y-70714894D01*
X161152486Y-70696268D01*
X161152483Y-70696264D01*
X161152483Y-70696263D01*
X161125098Y-70658571D01*
X161121890Y-70653687D01*
X161098172Y-70613582D01*
X161098163Y-70613571D01*
X161084005Y-70599413D01*
X161071370Y-70584620D01*
X161059593Y-70568412D01*
X161023693Y-70538713D01*
X161019381Y-70534790D01*
X160732461Y-70247870D01*
X164299500Y-70247870D01*
X164299501Y-70247876D01*
X164305908Y-70307483D01*
X164356202Y-70442328D01*
X164356206Y-70442335D01*
X164442452Y-70557544D01*
X164442455Y-70557547D01*
X164557664Y-70643793D01*
X164557671Y-70643797D01*
X164692517Y-70694091D01*
X164692516Y-70694091D01*
X164699444Y-70694835D01*
X164752127Y-70700500D01*
X166847872Y-70700499D01*
X166907483Y-70694091D01*
X167042331Y-70643796D01*
X167157546Y-70557546D01*
X167243796Y-70442331D01*
X167294091Y-70307483D01*
X167300500Y-70247873D01*
X167300500Y-69200005D01*
X171894859Y-69200005D01*
X171915385Y-69447729D01*
X171915387Y-69447738D01*
X171976412Y-69688717D01*
X172076266Y-69916364D01*
X172176564Y-70069882D01*
X172916922Y-69329523D01*
X172940507Y-69409844D01*
X173018239Y-69530798D01*
X173126900Y-69624952D01*
X173257685Y-69684680D01*
X173267466Y-69686086D01*
X172529942Y-70423609D01*
X172576768Y-70460055D01*
X172576770Y-70460056D01*
X172795385Y-70578364D01*
X172795396Y-70578369D01*
X173030506Y-70659083D01*
X173275707Y-70700000D01*
X173524293Y-70700000D01*
X173769493Y-70659083D01*
X174004603Y-70578369D01*
X174004614Y-70578364D01*
X174223228Y-70460057D01*
X174223231Y-70460055D01*
X174270056Y-70423609D01*
X173532533Y-69686086D01*
X173542315Y-69684680D01*
X173673100Y-69624952D01*
X173781761Y-69530798D01*
X173859493Y-69409844D01*
X173883076Y-69329524D01*
X174623434Y-70069882D01*
X174723731Y-69916369D01*
X174823587Y-69688717D01*
X174884612Y-69447738D01*
X174884614Y-69447729D01*
X174905141Y-69200005D01*
X174905141Y-69199994D01*
X174884614Y-68952270D01*
X174884612Y-68952261D01*
X174823587Y-68711282D01*
X174723731Y-68483630D01*
X174623434Y-68330116D01*
X173883076Y-69070475D01*
X173859493Y-68990156D01*
X173781761Y-68869202D01*
X173673100Y-68775048D01*
X173542315Y-68715320D01*
X173532531Y-68713913D01*
X174270056Y-67976389D01*
X174223229Y-67939943D01*
X174004614Y-67821635D01*
X174004603Y-67821630D01*
X173769493Y-67740916D01*
X173524293Y-67700000D01*
X173275707Y-67700000D01*
X173030506Y-67740916D01*
X172795396Y-67821630D01*
X172795390Y-67821632D01*
X172576761Y-67939949D01*
X172529942Y-67976388D01*
X172529941Y-67976389D01*
X173267466Y-68713913D01*
X173257685Y-68715320D01*
X173126900Y-68775048D01*
X173018239Y-68869202D01*
X172940507Y-68990156D01*
X172916923Y-69070475D01*
X172176564Y-68330116D01*
X172076267Y-68483632D01*
X171976412Y-68711282D01*
X171915387Y-68952261D01*
X171915385Y-68952270D01*
X171894859Y-69199994D01*
X171894859Y-69200005D01*
X167300500Y-69200005D01*
X167300499Y-68152128D01*
X167294091Y-68092517D01*
X167284657Y-68067224D01*
X167243797Y-67957671D01*
X167243793Y-67957664D01*
X167157547Y-67842455D01*
X167157544Y-67842452D01*
X167042335Y-67756206D01*
X167042328Y-67756202D01*
X166907482Y-67705908D01*
X166907483Y-67705908D01*
X166847883Y-67699501D01*
X166847881Y-67699500D01*
X166847873Y-67699500D01*
X166847864Y-67699500D01*
X164752129Y-67699500D01*
X164752123Y-67699501D01*
X164692516Y-67705908D01*
X164557671Y-67756202D01*
X164557664Y-67756206D01*
X164442455Y-67842452D01*
X164442452Y-67842455D01*
X164356206Y-67957664D01*
X164356202Y-67957671D01*
X164305908Y-68092517D01*
X164300141Y-68146166D01*
X164299501Y-68152123D01*
X164299500Y-68152135D01*
X164299500Y-70247870D01*
X160732461Y-70247870D01*
X159900803Y-69416211D01*
X159890980Y-69403950D01*
X159890759Y-69404134D01*
X159885786Y-69398122D01*
X159836066Y-69351432D01*
X159834666Y-69350075D01*
X159814476Y-69329884D01*
X159808986Y-69325625D01*
X159804561Y-69321847D01*
X159770582Y-69289938D01*
X159770580Y-69289936D01*
X159770577Y-69289935D01*
X159753029Y-69280288D01*
X159736763Y-69269604D01*
X159720933Y-69257325D01*
X159678168Y-69238818D01*
X159672922Y-69236248D01*
X159632093Y-69213803D01*
X159632092Y-69213802D01*
X159612693Y-69208822D01*
X159594281Y-69202518D01*
X159575898Y-69194562D01*
X159575892Y-69194560D01*
X159529874Y-69187272D01*
X159524152Y-69186087D01*
X159479021Y-69174500D01*
X159479019Y-69174500D01*
X159458984Y-69174500D01*
X159439586Y-69172973D01*
X159432162Y-69171797D01*
X159419805Y-69169840D01*
X159419804Y-69169840D01*
X159373416Y-69174225D01*
X159367578Y-69174500D01*
X153110452Y-69174500D01*
X153043413Y-69154815D01*
X153022771Y-69138181D01*
X152838819Y-68954228D01*
X152805334Y-68892905D01*
X152802500Y-68866547D01*
X152802500Y-64926578D01*
X152804223Y-64910961D01*
X152803938Y-64910934D01*
X152804672Y-64903172D01*
X152802531Y-64835012D01*
X152802500Y-64833065D01*
X152802500Y-64804492D01*
X152802500Y-64804491D01*
X152801629Y-64797600D01*
X152801172Y-64791786D01*
X152800996Y-64786197D01*
X152799709Y-64745214D01*
X152798970Y-64742672D01*
X152794122Y-64725985D01*
X152790174Y-64706925D01*
X152787664Y-64687049D01*
X152770507Y-64643716D01*
X152768619Y-64638200D01*
X152755619Y-64593453D01*
X152745418Y-64576204D01*
X152736860Y-64558735D01*
X152729486Y-64540109D01*
X152729483Y-64540105D01*
X152729483Y-64540104D01*
X152702098Y-64502412D01*
X152698890Y-64497528D01*
X152675172Y-64457423D01*
X152675163Y-64457412D01*
X152661005Y-64443254D01*
X152648370Y-64428461D01*
X152636593Y-64412253D01*
X152600693Y-64382554D01*
X152596381Y-64378631D01*
X151656962Y-63439212D01*
X151647139Y-63426950D01*
X151646918Y-63427134D01*
X151641945Y-63421122D01*
X151592225Y-63374432D01*
X151590825Y-63373075D01*
X151570635Y-63352884D01*
X151565145Y-63348625D01*
X151560720Y-63344847D01*
X151526741Y-63312938D01*
X151526739Y-63312936D01*
X151526736Y-63312935D01*
X151509188Y-63303288D01*
X151492922Y-63292604D01*
X151479673Y-63282327D01*
X151477095Y-63280327D01*
X151477094Y-63280326D01*
X151477092Y-63280325D01*
X151434327Y-63261818D01*
X151429081Y-63259248D01*
X151388252Y-63236803D01*
X151388251Y-63236802D01*
X151368852Y-63231822D01*
X151350440Y-63225518D01*
X151332057Y-63217562D01*
X151332051Y-63217560D01*
X151286033Y-63210272D01*
X151280311Y-63209087D01*
X151235180Y-63197500D01*
X151235178Y-63197500D01*
X151215143Y-63197500D01*
X151195745Y-63195973D01*
X151188321Y-63194797D01*
X151175964Y-63192840D01*
X151175963Y-63192840D01*
X151129575Y-63197225D01*
X151123737Y-63197500D01*
X142866610Y-63197500D01*
X142799571Y-63177815D01*
X142778929Y-63161181D01*
X142042560Y-62424812D01*
X141281050Y-61663301D01*
X141281049Y-61663300D01*
X141279804Y-61662055D01*
X141279785Y-61662037D01*
X139833961Y-60216212D01*
X139824138Y-60203950D01*
X139823917Y-60204134D01*
X139818944Y-60198122D01*
X139769224Y-60151432D01*
X139767824Y-60150075D01*
X139747634Y-60129884D01*
X139742144Y-60125625D01*
X139737719Y-60121847D01*
X139703740Y-60089938D01*
X139703738Y-60089936D01*
X139703735Y-60089935D01*
X139686187Y-60080288D01*
X139669921Y-60069604D01*
X139654091Y-60057325D01*
X139611326Y-60038818D01*
X139606080Y-60036248D01*
X139565251Y-60013803D01*
X139565250Y-60013802D01*
X139545851Y-60008822D01*
X139527439Y-60002518D01*
X139509056Y-59994562D01*
X139509050Y-59994560D01*
X139463032Y-59987272D01*
X139457310Y-59986087D01*
X139412179Y-59974500D01*
X139412177Y-59974500D01*
X139392142Y-59974500D01*
X139372744Y-59972973D01*
X139365320Y-59971797D01*
X139352963Y-59969840D01*
X139352962Y-59969840D01*
X139306574Y-59974225D01*
X139300736Y-59974500D01*
X133282856Y-59974500D01*
X133215817Y-59954815D01*
X133170062Y-59902011D01*
X133160118Y-59832853D01*
X133181282Y-59779376D01*
X133270129Y-59652489D01*
X133270133Y-59652483D01*
X133292275Y-59605000D01*
X146495000Y-59605000D01*
X147835671Y-59605000D01*
X147795000Y-59770005D01*
X147795000Y-59939995D01*
X147835671Y-60105000D01*
X146495001Y-60105000D01*
X146495001Y-61669197D01*
X146505400Y-61801332D01*
X146560377Y-62019519D01*
X146653428Y-62224374D01*
X146653431Y-62224380D01*
X146781559Y-62409323D01*
X146781569Y-62409335D01*
X146940664Y-62568430D01*
X146940676Y-62568440D01*
X147125619Y-62696568D01*
X147125625Y-62696571D01*
X147330480Y-62789622D01*
X147548667Y-62844599D01*
X147680810Y-62854999D01*
X148244999Y-62854999D01*
X148245000Y-62854998D01*
X148245000Y-60508837D01*
X148326249Y-60539651D01*
X148452660Y-60555000D01*
X148537340Y-60555000D01*
X148663751Y-60539651D01*
X148745000Y-60508837D01*
X148745000Y-62854999D01*
X149309182Y-62854999D01*
X149309197Y-62854998D01*
X149441332Y-62844599D01*
X149659519Y-62789622D01*
X149864374Y-62696571D01*
X149864380Y-62696568D01*
X150049323Y-62568440D01*
X150049335Y-62568430D01*
X150208430Y-62409335D01*
X150208440Y-62409323D01*
X150336568Y-62224380D01*
X150336571Y-62224374D01*
X150429622Y-62019519D01*
X150484599Y-61801332D01*
X150494998Y-61669208D01*
X154094500Y-61669208D01*
X154094501Y-61669223D01*
X154104904Y-61801413D01*
X154104905Y-61801420D01*
X154159902Y-62019678D01*
X154159903Y-62019681D01*
X154252991Y-62224622D01*
X154252997Y-62224632D01*
X154381174Y-62409645D01*
X154381178Y-62409650D01*
X154381181Y-62409654D01*
X154540346Y-62568819D01*
X154540350Y-62568822D01*
X154540354Y-62568825D01*
X154555409Y-62579255D01*
X154725374Y-62697007D01*
X154930317Y-62790096D01*
X154930321Y-62790097D01*
X155148579Y-62845094D01*
X155148581Y-62845094D01*
X155148588Y-62845096D01*
X155280783Y-62855500D01*
X156909216Y-62855499D01*
X157041412Y-62845096D01*
X157259683Y-62790096D01*
X157464626Y-62697007D01*
X157649654Y-62568819D01*
X157808819Y-62409654D01*
X157937007Y-62224626D01*
X158030096Y-62019683D01*
X158085096Y-61801412D01*
X158095500Y-61669217D01*
X158095499Y-58040784D01*
X158085096Y-57908588D01*
X158057734Y-57800000D01*
X163577840Y-57800000D01*
X163598436Y-58022273D01*
X163598437Y-58022276D01*
X163659523Y-58236975D01*
X163659526Y-58236981D01*
X163703729Y-58325752D01*
X163759026Y-58436804D01*
X163893550Y-58614943D01*
X164058517Y-58765330D01*
X164058524Y-58765334D01*
X164058525Y-58765335D01*
X164248304Y-58882841D01*
X164248305Y-58882841D01*
X164248308Y-58882843D01*
X164456461Y-58963482D01*
X164675887Y-59004500D01*
X164675889Y-59004500D01*
X164899111Y-59004500D01*
X164899113Y-59004500D01*
X165118539Y-58963482D01*
X165326692Y-58882843D01*
X165516483Y-58765330D01*
X165681450Y-58614943D01*
X165815974Y-58436804D01*
X165915474Y-58236980D01*
X165918233Y-58227282D01*
X165955512Y-58168189D01*
X166018821Y-58138631D01*
X166088061Y-58147992D01*
X166141248Y-58193301D01*
X166156767Y-58227283D01*
X166159526Y-58236982D01*
X166254521Y-58427756D01*
X166259026Y-58436804D01*
X166393550Y-58614943D01*
X166558517Y-58765330D01*
X166558524Y-58765334D01*
X166558525Y-58765335D01*
X166748304Y-58882841D01*
X166748305Y-58882841D01*
X166748308Y-58882843D01*
X166956461Y-58963482D01*
X167175887Y-59004500D01*
X167175889Y-59004500D01*
X167399111Y-59004500D01*
X167399113Y-59004500D01*
X167618539Y-58963482D01*
X167826692Y-58882843D01*
X168016483Y-58765330D01*
X168181450Y-58614943D01*
X168315974Y-58436804D01*
X168348000Y-58372484D01*
X168395501Y-58321249D01*
X168463164Y-58303827D01*
X168529505Y-58325752D01*
X168573461Y-58380062D01*
X168583000Y-58427756D01*
X168583000Y-58551869D01*
X168583001Y-58551876D01*
X168589408Y-58611483D01*
X168639702Y-58746328D01*
X168639706Y-58746335D01*
X168725952Y-58861544D01*
X168725955Y-58861547D01*
X168841164Y-58947793D01*
X168841171Y-58947797D01*
X168976017Y-58998091D01*
X168976016Y-58998091D01*
X168982944Y-58998835D01*
X169035627Y-59004500D01*
X170539372Y-59004499D01*
X170598983Y-58998091D01*
X170733831Y-58947796D01*
X170849046Y-58861546D01*
X170935296Y-58746331D01*
X170985591Y-58611483D01*
X170992000Y-58551873D01*
X170991999Y-57048128D01*
X170985591Y-56988517D01*
X170960176Y-56920377D01*
X170935297Y-56853671D01*
X170935293Y-56853664D01*
X170849047Y-56738455D01*
X170849044Y-56738452D01*
X170733835Y-56652206D01*
X170733828Y-56652202D01*
X170598982Y-56601908D01*
X170598983Y-56601908D01*
X170539383Y-56595501D01*
X170539381Y-56595500D01*
X170539373Y-56595500D01*
X170539364Y-56595500D01*
X169035629Y-56595500D01*
X169035623Y-56595501D01*
X168976016Y-56601908D01*
X168841171Y-56652202D01*
X168841164Y-56652206D01*
X168725955Y-56738452D01*
X168725952Y-56738455D01*
X168639706Y-56853664D01*
X168639702Y-56853671D01*
X168589408Y-56988517D01*
X168586730Y-57013431D01*
X168583001Y-57048123D01*
X168583000Y-57048135D01*
X168583000Y-57172241D01*
X168563315Y-57239280D01*
X168510511Y-57285035D01*
X168441353Y-57294979D01*
X168377797Y-57265954D01*
X168348000Y-57227513D01*
X168342256Y-57215978D01*
X168315974Y-57163196D01*
X168181450Y-56985057D01*
X168016483Y-56834670D01*
X168016479Y-56834667D01*
X168016474Y-56834664D01*
X167826695Y-56717158D01*
X167826689Y-56717156D01*
X167618539Y-56636518D01*
X167399113Y-56595500D01*
X167175887Y-56595500D01*
X166956461Y-56636518D01*
X166824828Y-56687512D01*
X166748310Y-56717156D01*
X166748304Y-56717158D01*
X166558525Y-56834664D01*
X166558515Y-56834671D01*
X166393551Y-56985055D01*
X166259026Y-57163195D01*
X166159526Y-57363018D01*
X166159524Y-57363022D01*
X166156766Y-57372718D01*
X166119486Y-57431811D01*
X166056177Y-57461368D01*
X165986937Y-57452006D01*
X165933751Y-57406696D01*
X165918234Y-57372718D01*
X165915475Y-57363022D01*
X165915473Y-57363018D01*
X165891246Y-57314364D01*
X165815974Y-57163196D01*
X165681450Y-56985057D01*
X165516483Y-56834670D01*
X165516479Y-56834667D01*
X165516474Y-56834664D01*
X165326695Y-56717158D01*
X165326689Y-56717156D01*
X165118539Y-56636518D01*
X164899113Y-56595500D01*
X164675887Y-56595500D01*
X164456461Y-56636518D01*
X164324828Y-56687512D01*
X164248310Y-56717156D01*
X164248304Y-56717158D01*
X164058525Y-56834664D01*
X164058515Y-56834671D01*
X163893551Y-56985055D01*
X163759026Y-57163195D01*
X163659526Y-57363018D01*
X163659523Y-57363024D01*
X163598437Y-57577723D01*
X163598436Y-57577726D01*
X163577840Y-57799999D01*
X163577840Y-57800000D01*
X158057734Y-57800000D01*
X158030096Y-57690317D01*
X157937007Y-57485374D01*
X157899898Y-57431811D01*
X157808825Y-57300354D01*
X157808822Y-57300350D01*
X157808819Y-57300346D01*
X157649654Y-57141181D01*
X157649650Y-57141178D01*
X157649645Y-57141174D01*
X157464632Y-57012997D01*
X157464630Y-57012995D01*
X157464626Y-57012993D01*
X157461299Y-57011482D01*
X157259681Y-56919903D01*
X157259678Y-56919902D01*
X157041420Y-56864905D01*
X157041413Y-56864904D01*
X156997347Y-56861436D01*
X156909217Y-56854500D01*
X156909215Y-56854500D01*
X155280791Y-56854500D01*
X155280776Y-56854501D01*
X155148586Y-56864904D01*
X155148579Y-56864905D01*
X154930321Y-56919902D01*
X154930318Y-56919903D01*
X154725377Y-57012991D01*
X154725367Y-57012997D01*
X154540354Y-57141174D01*
X154540342Y-57141184D01*
X154381184Y-57300342D01*
X154381174Y-57300354D01*
X154252997Y-57485367D01*
X154252991Y-57485377D01*
X154159903Y-57690318D01*
X154159902Y-57690321D01*
X154104905Y-57908579D01*
X154104904Y-57908586D01*
X154094500Y-58040777D01*
X154094500Y-61669208D01*
X150494998Y-61669208D01*
X150494999Y-61669196D01*
X150495000Y-61669184D01*
X150495000Y-60105000D01*
X149154329Y-60105000D01*
X149195000Y-59939995D01*
X149195000Y-59770005D01*
X149154329Y-59605000D01*
X150494999Y-59605000D01*
X150494999Y-58040817D01*
X150494998Y-58040802D01*
X150484599Y-57908667D01*
X150429622Y-57690480D01*
X150336571Y-57485625D01*
X150336568Y-57485619D01*
X150208440Y-57300676D01*
X150208430Y-57300664D01*
X150049335Y-57141569D01*
X150049323Y-57141559D01*
X149864380Y-57013431D01*
X149864374Y-57013428D01*
X149659519Y-56920377D01*
X149441332Y-56865400D01*
X149309196Y-56855000D01*
X148745000Y-56855000D01*
X148745000Y-59201162D01*
X148663751Y-59170349D01*
X148537340Y-59155000D01*
X148452660Y-59155000D01*
X148326249Y-59170349D01*
X148245000Y-59201162D01*
X148245000Y-56855000D01*
X147680817Y-56855000D01*
X147680802Y-56855001D01*
X147548667Y-56865400D01*
X147330480Y-56920377D01*
X147125625Y-57013428D01*
X147125619Y-57013431D01*
X146940676Y-57141559D01*
X146940664Y-57141569D01*
X146781569Y-57300664D01*
X146781559Y-57300676D01*
X146653431Y-57485619D01*
X146653428Y-57485625D01*
X146560377Y-57690480D01*
X146505400Y-57908667D01*
X146495000Y-58040803D01*
X146495000Y-59605000D01*
X133292275Y-59605000D01*
X133366265Y-59446326D01*
X133366269Y-59446317D01*
X133425139Y-59226610D01*
X133425141Y-59226599D01*
X133439999Y-59056766D01*
X133440000Y-59056764D01*
X133440000Y-59050000D01*
X132573686Y-59050000D01*
X132599493Y-59009844D01*
X132640000Y-58871889D01*
X132640000Y-58728111D01*
X132599493Y-58590156D01*
X132573686Y-58550000D01*
X133440000Y-58550000D01*
X133440000Y-58543236D01*
X133439999Y-58543233D01*
X133425141Y-58373400D01*
X133425139Y-58373389D01*
X133366269Y-58153682D01*
X133366265Y-58153673D01*
X133270134Y-57947517D01*
X133139657Y-57761179D01*
X132978820Y-57600342D01*
X132792482Y-57469865D01*
X132586328Y-57373734D01*
X132389999Y-57321127D01*
X132389999Y-58364498D01*
X132282315Y-58315320D01*
X132175763Y-58300000D01*
X132104237Y-58300000D01*
X131997685Y-58315320D01*
X131889999Y-58364498D01*
X131889999Y-57321127D01*
X131693671Y-57373734D01*
X131487517Y-57469865D01*
X131301179Y-57600342D01*
X131140342Y-57761179D01*
X131009867Y-57947515D01*
X130982657Y-58005867D01*
X130936484Y-58058306D01*
X130869290Y-58077457D01*
X130802409Y-58057241D01*
X130757893Y-58005865D01*
X130730685Y-57947518D01*
X130730568Y-57947266D01*
X130600047Y-57760861D01*
X130600045Y-57760858D01*
X130439141Y-57599954D01*
X130252734Y-57469432D01*
X130252732Y-57469431D01*
X130046497Y-57373261D01*
X130046488Y-57373258D01*
X129826697Y-57314366D01*
X129826693Y-57314365D01*
X129826692Y-57314365D01*
X129826691Y-57314364D01*
X129826686Y-57314364D01*
X129600002Y-57294532D01*
X129599998Y-57294532D01*
X129373313Y-57314364D01*
X129373302Y-57314366D01*
X129153511Y-57373258D01*
X129153502Y-57373261D01*
X128947267Y-57469431D01*
X128947265Y-57469432D01*
X128760858Y-57599954D01*
X128599954Y-57760858D01*
X128469432Y-57947265D01*
X128469431Y-57947267D01*
X128442382Y-58005275D01*
X128396209Y-58057714D01*
X128329016Y-58076866D01*
X128262135Y-58056650D01*
X128217618Y-58005275D01*
X128191843Y-57950001D01*
X128190568Y-57947266D01*
X128060047Y-57760861D01*
X128060045Y-57760858D01*
X127899141Y-57599954D01*
X127712734Y-57469432D01*
X127712732Y-57469431D01*
X127506497Y-57373261D01*
X127506488Y-57373258D01*
X127286697Y-57314366D01*
X127286693Y-57314365D01*
X127286692Y-57314365D01*
X127286691Y-57314364D01*
X127286686Y-57314364D01*
X127060002Y-57294532D01*
X127059998Y-57294532D01*
X126833313Y-57314364D01*
X126833302Y-57314366D01*
X126613511Y-57373258D01*
X126613502Y-57373261D01*
X126407267Y-57469431D01*
X126407265Y-57469432D01*
X126220858Y-57599954D01*
X126059954Y-57760858D01*
X125929432Y-57947265D01*
X125929431Y-57947267D01*
X125902382Y-58005275D01*
X125856209Y-58057714D01*
X125789016Y-58076866D01*
X125722135Y-58056650D01*
X125677618Y-58005275D01*
X125651843Y-57950001D01*
X125650568Y-57947266D01*
X125520047Y-57760861D01*
X125520045Y-57760858D01*
X125359141Y-57599954D01*
X125172734Y-57469432D01*
X125172732Y-57469431D01*
X124966497Y-57373261D01*
X124966488Y-57373258D01*
X124746697Y-57314366D01*
X124746693Y-57314365D01*
X124746692Y-57314365D01*
X124746691Y-57314364D01*
X124746686Y-57314364D01*
X124520002Y-57294532D01*
X124519998Y-57294532D01*
X124293313Y-57314364D01*
X124293302Y-57314366D01*
X124073511Y-57373258D01*
X124073502Y-57373261D01*
X123867267Y-57469431D01*
X123867265Y-57469432D01*
X123680858Y-57599954D01*
X123519954Y-57760858D01*
X123389432Y-57947265D01*
X123389431Y-57947267D01*
X123362382Y-58005275D01*
X123316209Y-58057714D01*
X123249016Y-58076866D01*
X123182135Y-58056650D01*
X123137618Y-58005275D01*
X123111843Y-57950001D01*
X123110568Y-57947266D01*
X122980047Y-57760861D01*
X122980045Y-57760858D01*
X122819141Y-57599954D01*
X122632734Y-57469432D01*
X122632732Y-57469431D01*
X122426497Y-57373261D01*
X122426488Y-57373258D01*
X122206697Y-57314366D01*
X122206693Y-57314365D01*
X122206692Y-57314365D01*
X122206691Y-57314364D01*
X122206686Y-57314364D01*
X121980002Y-57294532D01*
X121979998Y-57294532D01*
X121753313Y-57314364D01*
X121753302Y-57314366D01*
X121533511Y-57373258D01*
X121533502Y-57373261D01*
X121327267Y-57469431D01*
X121327265Y-57469432D01*
X121140858Y-57599954D01*
X120979954Y-57760858D01*
X120849432Y-57947265D01*
X120849431Y-57947267D01*
X120822382Y-58005275D01*
X120776209Y-58057714D01*
X120709016Y-58076866D01*
X120642135Y-58056650D01*
X120597618Y-58005275D01*
X120571843Y-57950001D01*
X120570568Y-57947266D01*
X120440047Y-57760861D01*
X120440045Y-57760858D01*
X120279141Y-57599954D01*
X120092734Y-57469432D01*
X120092732Y-57469431D01*
X119886497Y-57373261D01*
X119886488Y-57373258D01*
X119666697Y-57314366D01*
X119666693Y-57314365D01*
X119666692Y-57314365D01*
X119666691Y-57314364D01*
X119666686Y-57314364D01*
X119440002Y-57294532D01*
X119439998Y-57294532D01*
X119213313Y-57314364D01*
X119213302Y-57314366D01*
X118993511Y-57373258D01*
X118993502Y-57373261D01*
X118787267Y-57469431D01*
X118787265Y-57469432D01*
X118600858Y-57599954D01*
X118439954Y-57760858D01*
X118336514Y-57908588D01*
X118309432Y-57947266D01*
X118309315Y-57947518D01*
X118282106Y-58005867D01*
X118235933Y-58058306D01*
X118168739Y-58077457D01*
X118101858Y-58057241D01*
X118057342Y-58005865D01*
X118030135Y-57947520D01*
X118030134Y-57947518D01*
X117899657Y-57761179D01*
X117738820Y-57600342D01*
X117552482Y-57469865D01*
X117346328Y-57373734D01*
X117150000Y-57321127D01*
X117150000Y-58364498D01*
X117042315Y-58315320D01*
X116935763Y-58300000D01*
X116864237Y-58300000D01*
X116757685Y-58315320D01*
X116649999Y-58364498D01*
X116650000Y-57321127D01*
X116453671Y-57373734D01*
X116247517Y-57469865D01*
X116061179Y-57600342D01*
X115900342Y-57761179D01*
X115769865Y-57947517D01*
X115673734Y-58153673D01*
X115673730Y-58153682D01*
X115614860Y-58373389D01*
X115614858Y-58373400D01*
X115600000Y-58543233D01*
X115600000Y-58550000D01*
X116466314Y-58550000D01*
X116440507Y-58590156D01*
X116400000Y-58728111D01*
X116400000Y-58871889D01*
X116440507Y-59009844D01*
X116466314Y-59050000D01*
X115600000Y-59050000D01*
X115600000Y-59056766D01*
X115614858Y-59226599D01*
X115614860Y-59226610D01*
X115673730Y-59446317D01*
X115673734Y-59446326D01*
X115769865Y-59652482D01*
X115900342Y-59838820D01*
X116061179Y-59999657D01*
X116247517Y-60130134D01*
X116453673Y-60226265D01*
X116453682Y-60226269D01*
X116649999Y-60278872D01*
X116650000Y-60278871D01*
X116649999Y-59235501D01*
X116757685Y-59284680D01*
X116864237Y-59300000D01*
X116935763Y-59300000D01*
X117042315Y-59284680D01*
X117150000Y-59235501D01*
X117150000Y-60278872D01*
X117346317Y-60226269D01*
X117346326Y-60226265D01*
X117552482Y-60130134D01*
X117738820Y-59999657D01*
X117899657Y-59838820D01*
X118030132Y-59652484D01*
X118057341Y-59594134D01*
X118103513Y-59541695D01*
X118170707Y-59522542D01*
X118237588Y-59542757D01*
X118282106Y-59594133D01*
X118309431Y-59652732D01*
X118309432Y-59652734D01*
X118439954Y-59839141D01*
X118600857Y-60000044D01*
X118600860Y-60000046D01*
X118600861Y-60000047D01*
X118664786Y-60044807D01*
X118708411Y-60099383D01*
X118715605Y-60168881D01*
X118684083Y-60231236D01*
X118681344Y-60234063D01*
X114677228Y-64238181D01*
X114615905Y-64271666D01*
X114589547Y-64274500D01*
X108994188Y-64274500D01*
X108927149Y-64254815D01*
X108892613Y-64221623D01*
X108780045Y-64060858D01*
X108619141Y-63899954D01*
X108432734Y-63769432D01*
X108432728Y-63769429D01*
X108374725Y-63742382D01*
X108322285Y-63696210D01*
X108303133Y-63629017D01*
X108323348Y-63562135D01*
X108374725Y-63517618D01*
X108432734Y-63490568D01*
X108619139Y-63360047D01*
X108780047Y-63199139D01*
X108910568Y-63012734D01*
X109006739Y-62806496D01*
X109065635Y-62586692D01*
X109085468Y-62360000D01*
X109065635Y-62133308D01*
X109006739Y-61913504D01*
X108910568Y-61707266D01*
X108780047Y-61520861D01*
X108780045Y-61520858D01*
X108619141Y-61359954D01*
X108432734Y-61229432D01*
X108432732Y-61229431D01*
X108226497Y-61133261D01*
X108226488Y-61133258D01*
X108006697Y-61074366D01*
X108006693Y-61074365D01*
X108006692Y-61074365D01*
X108006691Y-61074364D01*
X108006686Y-61074364D01*
X107780002Y-61054532D01*
X107779998Y-61054532D01*
X107553313Y-61074364D01*
X107553302Y-61074366D01*
X107333511Y-61133258D01*
X107333502Y-61133261D01*
X107127267Y-61229431D01*
X107127265Y-61229432D01*
X106940858Y-61359954D01*
X106779954Y-61520858D01*
X106649432Y-61707265D01*
X106649431Y-61707267D01*
X106553261Y-61913502D01*
X106553258Y-61913511D01*
X106494366Y-62133302D01*
X106494364Y-62133313D01*
X106474532Y-62359998D01*
X106474532Y-62360001D01*
X106494364Y-62586686D01*
X106494366Y-62586697D01*
X106553258Y-62806488D01*
X106553261Y-62806497D01*
X106649431Y-63012732D01*
X106649432Y-63012734D01*
X106779954Y-63199141D01*
X106940858Y-63360045D01*
X106940861Y-63360047D01*
X107127266Y-63490568D01*
X107185275Y-63517618D01*
X107237714Y-63563791D01*
X107256866Y-63630984D01*
X107236650Y-63697865D01*
X107185275Y-63742382D01*
X107127267Y-63769431D01*
X107127265Y-63769432D01*
X106940858Y-63899954D01*
X106779954Y-64060858D01*
X106649432Y-64247265D01*
X106649431Y-64247267D01*
X106553261Y-64453502D01*
X106553258Y-64453511D01*
X106494366Y-64673302D01*
X106494364Y-64673313D01*
X106474532Y-64899998D01*
X106474532Y-64900001D01*
X106494364Y-65126686D01*
X106494366Y-65126697D01*
X106553258Y-65346488D01*
X106553261Y-65346497D01*
X106649431Y-65552732D01*
X106649432Y-65552734D01*
X106779954Y-65739141D01*
X106940858Y-65900045D01*
X106985500Y-65931303D01*
X107127266Y-66030568D01*
X107185278Y-66057619D01*
X107237713Y-66103788D01*
X107256866Y-66170982D01*
X107236651Y-66237863D01*
X107185277Y-66282380D01*
X107127268Y-66309430D01*
X107127265Y-66309432D01*
X106940858Y-66439954D01*
X106779954Y-66600858D01*
X106649432Y-66787265D01*
X106649431Y-66787267D01*
X106553261Y-66993502D01*
X106553258Y-66993511D01*
X106494366Y-67213302D01*
X106494364Y-67213313D01*
X106474532Y-67439998D01*
X106474532Y-67440001D01*
X106494364Y-67666686D01*
X106494367Y-67666700D01*
X106506078Y-67710408D01*
X106504415Y-67780257D01*
X106465252Y-67838120D01*
X106401023Y-67865623D01*
X106386303Y-67866500D01*
X105002452Y-67866500D01*
X104935413Y-67846815D01*
X104914771Y-67830181D01*
X100525803Y-63441212D01*
X100515980Y-63428950D01*
X100515759Y-63429134D01*
X100510786Y-63423122D01*
X100461066Y-63376432D01*
X100459666Y-63375075D01*
X100439476Y-63354884D01*
X100433986Y-63350625D01*
X100429561Y-63346847D01*
X100395582Y-63314938D01*
X100395580Y-63314936D01*
X100395577Y-63314935D01*
X100378029Y-63305288D01*
X100361763Y-63294604D01*
X100358744Y-63292262D01*
X100345936Y-63282327D01*
X100345935Y-63282326D01*
X100345933Y-63282325D01*
X100303168Y-63263818D01*
X100297922Y-63261248D01*
X100257093Y-63238803D01*
X100257092Y-63238802D01*
X100237693Y-63233822D01*
X100219281Y-63227518D01*
X100200898Y-63219562D01*
X100200892Y-63219560D01*
X100154874Y-63212272D01*
X100149152Y-63211087D01*
X100104021Y-63199500D01*
X100104019Y-63199500D01*
X100083984Y-63199500D01*
X100064586Y-63197973D01*
X100051958Y-63195973D01*
X100044805Y-63194840D01*
X100044804Y-63194840D01*
X99998416Y-63199225D01*
X99992578Y-63199500D01*
X92493134Y-63199500D01*
X92426095Y-63179815D01*
X92416972Y-63173354D01*
X92373510Y-63139527D01*
X92373509Y-63139526D01*
X92273165Y-63085222D01*
X92154811Y-63021172D01*
X92154802Y-63021169D01*
X91919616Y-62940429D01*
X91674335Y-62899500D01*
X91425665Y-62899500D01*
X91180383Y-62940429D01*
X90945197Y-63021169D01*
X90945188Y-63021172D01*
X90726493Y-63139524D01*
X90530257Y-63292261D01*
X90361833Y-63475217D01*
X90225826Y-63683393D01*
X90125936Y-63911118D01*
X90064892Y-64152175D01*
X90064890Y-64152187D01*
X90044357Y-64399994D01*
X90044357Y-64400005D01*
X90064890Y-64647812D01*
X90064892Y-64647824D01*
X90125936Y-64888881D01*
X90225826Y-65116606D01*
X90361833Y-65324782D01*
X90361836Y-65324785D01*
X90530256Y-65507738D01*
X90726491Y-65660474D01*
X90945190Y-65778828D01*
X91180386Y-65859571D01*
X91425665Y-65900500D01*
X91674335Y-65900500D01*
X91919614Y-65859571D01*
X92154810Y-65778828D01*
X92373509Y-65660474D01*
X92569744Y-65507738D01*
X92738164Y-65324785D01*
X92874173Y-65116607D01*
X92974063Y-64888881D01*
X93035108Y-64647821D01*
X93038915Y-64601877D01*
X93042033Y-64564260D01*
X93067186Y-64499075D01*
X93123589Y-64457837D01*
X93165609Y-64450500D01*
X99714548Y-64450500D01*
X99781587Y-64470185D01*
X99802229Y-64486819D01*
X104191194Y-68875784D01*
X104201019Y-68888048D01*
X104201240Y-68887866D01*
X104206210Y-68893874D01*
X104255949Y-68940582D01*
X104257316Y-68941906D01*
X104277530Y-68962120D01*
X104283004Y-68966366D01*
X104287442Y-68970156D01*
X104321418Y-69002062D01*
X104321422Y-69002064D01*
X104338973Y-69011713D01*
X104355231Y-69022392D01*
X104371064Y-69034674D01*
X104393015Y-69044172D01*
X104413837Y-69053183D01*
X104419081Y-69055752D01*
X104459908Y-69078197D01*
X104479312Y-69083179D01*
X104497710Y-69089478D01*
X104516105Y-69097438D01*
X104562129Y-69104726D01*
X104567832Y-69105907D01*
X104612981Y-69117500D01*
X104633016Y-69117500D01*
X104652413Y-69119026D01*
X104672196Y-69122160D01*
X104718583Y-69117775D01*
X104724422Y-69117500D01*
X106558110Y-69117500D01*
X106625149Y-69137185D01*
X106670904Y-69189989D01*
X106680848Y-69259147D01*
X106659686Y-69312621D01*
X106649435Y-69327261D01*
X106649431Y-69327267D01*
X106553261Y-69533502D01*
X106553258Y-69533511D01*
X106494366Y-69753302D01*
X106494364Y-69753313D01*
X106474532Y-69979998D01*
X106474532Y-69980001D01*
X106494364Y-70206686D01*
X106494366Y-70206697D01*
X106553258Y-70426488D01*
X106553261Y-70426497D01*
X106649431Y-70632732D01*
X106649432Y-70632734D01*
X106779954Y-70819141D01*
X106940858Y-70980045D01*
X106940861Y-70980047D01*
X107127266Y-71110568D01*
X107185275Y-71137618D01*
X107237714Y-71183791D01*
X107256866Y-71250984D01*
X107236650Y-71317865D01*
X107185275Y-71362382D01*
X107127267Y-71389431D01*
X107127265Y-71389432D01*
X106940858Y-71519954D01*
X106779954Y-71680858D01*
X106649432Y-71867265D01*
X106649431Y-71867267D01*
X106553261Y-72073502D01*
X106553258Y-72073511D01*
X106494366Y-72293302D01*
X106494364Y-72293313D01*
X106474532Y-72519998D01*
X106474532Y-72520001D01*
X106494364Y-72746686D01*
X106494367Y-72746700D01*
X106506078Y-72790408D01*
X106504415Y-72860257D01*
X106465252Y-72918120D01*
X106401023Y-72945623D01*
X106386303Y-72946500D01*
X101782452Y-72946500D01*
X101715413Y-72926815D01*
X101694771Y-72910181D01*
X101363660Y-72579070D01*
X101330175Y-72517747D01*
X101331135Y-72460950D01*
X101385108Y-72247821D01*
X101399076Y-72079254D01*
X101405643Y-72000005D01*
X101405643Y-71999994D01*
X101385109Y-71752187D01*
X101385107Y-71752175D01*
X101324063Y-71511118D01*
X101224173Y-71283393D01*
X101088166Y-71075217D01*
X101009905Y-70990203D01*
X100919744Y-70892262D01*
X100723509Y-70739526D01*
X100723507Y-70739525D01*
X100723506Y-70739524D01*
X100504811Y-70621172D01*
X100504802Y-70621169D01*
X100269616Y-70540429D01*
X100024335Y-70499500D01*
X99775665Y-70499500D01*
X99530383Y-70540429D01*
X99295197Y-70621169D01*
X99295188Y-70621172D01*
X99076493Y-70739524D01*
X98880257Y-70892261D01*
X98711833Y-71075217D01*
X98575826Y-71283393D01*
X98475936Y-71511118D01*
X98414892Y-71752175D01*
X98414890Y-71752187D01*
X98394357Y-71999994D01*
X98394357Y-72000005D01*
X98414890Y-72247812D01*
X98414892Y-72247824D01*
X98475936Y-72488881D01*
X98575826Y-72716606D01*
X98711833Y-72924782D01*
X98711836Y-72924785D01*
X98880256Y-73107738D01*
X99076491Y-73260474D01*
X99295190Y-73378828D01*
X99530386Y-73459571D01*
X99775665Y-73500500D01*
X100024335Y-73500500D01*
X100269614Y-73459571D01*
X100349287Y-73432218D01*
X100419082Y-73429068D01*
X100477229Y-73461819D01*
X100971194Y-73955784D01*
X100981019Y-73968048D01*
X100981240Y-73967866D01*
X100986210Y-73973874D01*
X101035949Y-74020582D01*
X101037316Y-74021906D01*
X101057530Y-74042120D01*
X101063004Y-74046366D01*
X101067442Y-74050156D01*
X101101418Y-74082062D01*
X101101422Y-74082064D01*
X101118973Y-74091713D01*
X101135231Y-74102392D01*
X101151064Y-74114674D01*
X101173015Y-74124172D01*
X101193837Y-74133183D01*
X101199081Y-74135752D01*
X101239908Y-74158197D01*
X101259312Y-74163179D01*
X101277710Y-74169478D01*
X101296105Y-74177438D01*
X101342129Y-74184726D01*
X101347832Y-74185907D01*
X101392981Y-74197500D01*
X101413016Y-74197500D01*
X101432413Y-74199026D01*
X101452196Y-74202160D01*
X101498583Y-74197775D01*
X101504422Y-74197500D01*
X106558110Y-74197500D01*
X106625149Y-74217185D01*
X106670904Y-74269989D01*
X106680848Y-74339147D01*
X106659686Y-74392621D01*
X106649435Y-74407261D01*
X106649431Y-74407267D01*
X106553261Y-74613502D01*
X106553258Y-74613511D01*
X106494366Y-74833302D01*
X106494364Y-74833313D01*
X106474532Y-75059998D01*
X106474532Y-75060001D01*
X106494364Y-75286686D01*
X106494366Y-75286697D01*
X106553258Y-75506488D01*
X106553261Y-75506497D01*
X106649431Y-75712732D01*
X106649432Y-75712734D01*
X106779954Y-75899141D01*
X106940858Y-76060045D01*
X106940861Y-76060047D01*
X107127266Y-76190568D01*
X107185275Y-76217618D01*
X107237714Y-76263791D01*
X107256866Y-76330984D01*
X107236650Y-76397865D01*
X107185275Y-76442381D01*
X107168272Y-76450310D01*
X107127267Y-76469431D01*
X107127265Y-76469432D01*
X106940858Y-76599954D01*
X106779954Y-76760858D01*
X106649432Y-76947265D01*
X106649431Y-76947267D01*
X106553261Y-77153502D01*
X106553258Y-77153511D01*
X106494366Y-77373302D01*
X106494364Y-77373313D01*
X106474532Y-77599998D01*
X106474532Y-77600001D01*
X106494364Y-77826686D01*
X106494366Y-77826697D01*
X106553258Y-78046488D01*
X106553261Y-78046497D01*
X106649431Y-78252732D01*
X106649435Y-78252738D01*
X106659686Y-78267379D01*
X106682013Y-78333585D01*
X106665001Y-78401352D01*
X106614052Y-78449164D01*
X106558110Y-78462500D01*
X93198452Y-78462500D01*
X93131413Y-78442815D01*
X93110771Y-78426181D01*
X92820443Y-78135853D01*
X92786958Y-78074530D01*
X92791942Y-78004838D01*
X92833814Y-77948905D01*
X92899278Y-77924488D01*
X92948388Y-77930891D01*
X93030508Y-77959083D01*
X93275707Y-78000000D01*
X93524293Y-78000000D01*
X93769493Y-77959083D01*
X94004603Y-77878369D01*
X94004614Y-77878364D01*
X94223228Y-77760057D01*
X94223231Y-77760055D01*
X94270056Y-77723609D01*
X93571568Y-77025121D01*
X93688458Y-76974349D01*
X93805739Y-76878934D01*
X93892928Y-76755415D01*
X93923354Y-76669802D01*
X94623434Y-77369882D01*
X94723731Y-77216369D01*
X94823587Y-76988717D01*
X94884612Y-76747738D01*
X94884614Y-76747729D01*
X94905141Y-76500005D01*
X98394858Y-76500005D01*
X98415385Y-76747729D01*
X98415387Y-76747738D01*
X98476412Y-76988717D01*
X98576266Y-77216364D01*
X98676564Y-77369882D01*
X99374070Y-76672376D01*
X99376884Y-76685915D01*
X99446442Y-76820156D01*
X99549638Y-76930652D01*
X99678819Y-77009209D01*
X99730002Y-77023549D01*
X99029942Y-77723609D01*
X99076768Y-77760055D01*
X99076770Y-77760056D01*
X99295385Y-77878364D01*
X99295396Y-77878369D01*
X99530506Y-77959083D01*
X99775707Y-78000000D01*
X100024293Y-78000000D01*
X100269493Y-77959083D01*
X100504603Y-77878369D01*
X100504614Y-77878364D01*
X100723228Y-77760057D01*
X100723231Y-77760055D01*
X100770056Y-77723609D01*
X100071568Y-77025121D01*
X100188458Y-76974349D01*
X100305739Y-76878934D01*
X100392928Y-76755415D01*
X100423354Y-76669802D01*
X101123434Y-77369882D01*
X101223731Y-77216369D01*
X101323587Y-76988717D01*
X101384612Y-76747738D01*
X101384614Y-76747729D01*
X101405141Y-76500005D01*
X101405141Y-76499994D01*
X101384614Y-76252270D01*
X101384612Y-76252261D01*
X101323587Y-76011282D01*
X101223731Y-75783630D01*
X101123434Y-75630116D01*
X100425929Y-76327622D01*
X100423116Y-76314085D01*
X100353558Y-76179844D01*
X100250362Y-76069348D01*
X100121181Y-75990791D01*
X100069997Y-75976450D01*
X100770057Y-75276390D01*
X100770056Y-75276389D01*
X100723229Y-75239943D01*
X100504614Y-75121635D01*
X100504603Y-75121630D01*
X100269493Y-75040916D01*
X100024293Y-75000000D01*
X99775707Y-75000000D01*
X99530506Y-75040916D01*
X99295396Y-75121630D01*
X99295390Y-75121632D01*
X99076761Y-75239949D01*
X99029942Y-75276388D01*
X99029942Y-75276390D01*
X99728431Y-75974878D01*
X99611542Y-76025651D01*
X99494261Y-76121066D01*
X99407072Y-76244585D01*
X99376645Y-76330197D01*
X98676564Y-75630116D01*
X98576267Y-75783632D01*
X98476412Y-76011282D01*
X98415387Y-76252261D01*
X98415385Y-76252270D01*
X98394858Y-76499994D01*
X98394858Y-76500005D01*
X94905141Y-76500005D01*
X94905141Y-76499994D01*
X94884614Y-76252270D01*
X94884612Y-76252261D01*
X94823587Y-76011282D01*
X94723731Y-75783630D01*
X94623434Y-75630116D01*
X93925929Y-76327622D01*
X93923116Y-76314085D01*
X93853558Y-76179844D01*
X93750362Y-76069348D01*
X93621181Y-75990791D01*
X93569996Y-75976449D01*
X94270056Y-75276389D01*
X94223229Y-75239943D01*
X94004614Y-75121635D01*
X94004603Y-75121630D01*
X93769493Y-75040916D01*
X93524293Y-75000000D01*
X93275707Y-75000000D01*
X93030506Y-75040916D01*
X92795396Y-75121630D01*
X92795390Y-75121632D01*
X92576761Y-75239949D01*
X92529942Y-75276388D01*
X92529942Y-75276390D01*
X93228430Y-75974879D01*
X93111542Y-76025651D01*
X92994261Y-76121066D01*
X92907072Y-76244585D01*
X92876645Y-76330197D01*
X92176564Y-75630116D01*
X92076267Y-75783632D01*
X91976412Y-76011282D01*
X91915387Y-76252261D01*
X91915385Y-76252270D01*
X91894858Y-76499994D01*
X91894858Y-76500005D01*
X91915385Y-76747729D01*
X91915387Y-76747741D01*
X91968644Y-76958046D01*
X91966019Y-77027866D01*
X91926063Y-77085184D01*
X91861461Y-77111800D01*
X91792725Y-77099265D01*
X91760757Y-77076167D01*
X89806225Y-75121635D01*
X86684596Y-72000005D01*
X91894357Y-72000005D01*
X91914890Y-72247812D01*
X91914892Y-72247824D01*
X91975936Y-72488881D01*
X92075826Y-72716606D01*
X92211833Y-72924782D01*
X92211836Y-72924785D01*
X92380256Y-73107738D01*
X92576491Y-73260474D01*
X92795190Y-73378828D01*
X93030386Y-73459571D01*
X93275665Y-73500500D01*
X93524335Y-73500500D01*
X93769614Y-73459571D01*
X94004810Y-73378828D01*
X94223509Y-73260474D01*
X94419744Y-73107738D01*
X94588164Y-72924785D01*
X94724173Y-72716607D01*
X94824063Y-72488881D01*
X94885108Y-72247821D01*
X94899076Y-72079254D01*
X94905643Y-72000005D01*
X94905643Y-71999994D01*
X94885109Y-71752187D01*
X94885107Y-71752175D01*
X94824063Y-71511118D01*
X94724173Y-71283393D01*
X94588166Y-71075217D01*
X94509905Y-70990203D01*
X94419744Y-70892262D01*
X94223509Y-70739526D01*
X94223507Y-70739525D01*
X94223506Y-70739524D01*
X94004811Y-70621172D01*
X94004802Y-70621169D01*
X93769616Y-70540429D01*
X93524335Y-70499500D01*
X93275665Y-70499500D01*
X93030383Y-70540429D01*
X92795197Y-70621169D01*
X92795188Y-70621172D01*
X92576493Y-70739524D01*
X92380257Y-70892261D01*
X92211833Y-71075217D01*
X92075826Y-71283393D01*
X91975936Y-71511118D01*
X91914892Y-71752175D01*
X91914890Y-71752187D01*
X91894357Y-71999994D01*
X91894357Y-72000005D01*
X86684596Y-72000005D01*
X86500803Y-71816212D01*
X86490980Y-71803950D01*
X86490759Y-71804134D01*
X86485786Y-71798122D01*
X86436066Y-71751432D01*
X86434666Y-71750075D01*
X86414476Y-71729884D01*
X86408986Y-71725625D01*
X86404561Y-71721847D01*
X86370582Y-71689938D01*
X86370580Y-71689936D01*
X86370577Y-71689935D01*
X86353029Y-71680288D01*
X86336763Y-71669604D01*
X86320933Y-71657325D01*
X86278168Y-71638818D01*
X86272922Y-71636248D01*
X86232093Y-71613803D01*
X86232092Y-71613802D01*
X86212693Y-71608822D01*
X86194281Y-71602518D01*
X86175898Y-71594562D01*
X86175892Y-71594560D01*
X86129874Y-71587272D01*
X86124152Y-71586087D01*
X86079021Y-71574500D01*
X86079019Y-71574500D01*
X86058984Y-71574500D01*
X86039586Y-71572973D01*
X86032162Y-71571797D01*
X86019805Y-71569840D01*
X86019804Y-71569840D01*
X85973416Y-71574225D01*
X85967578Y-71574500D01*
X84545150Y-71574500D01*
X84478111Y-71554815D01*
X84432356Y-71502011D01*
X84431595Y-71500311D01*
X84424175Y-71483396D01*
X84288166Y-71275217D01*
X84204002Y-71183791D01*
X84119744Y-71092262D01*
X83923509Y-70939526D01*
X83923507Y-70939525D01*
X83923506Y-70939524D01*
X83704811Y-70821172D01*
X83704802Y-70821169D01*
X83469616Y-70740429D01*
X83224335Y-70699500D01*
X82975665Y-70699500D01*
X82730383Y-70740429D01*
X82495197Y-70821169D01*
X82495188Y-70821172D01*
X82276493Y-70939524D01*
X82080257Y-71092261D01*
X81911833Y-71275217D01*
X81775826Y-71483393D01*
X81675936Y-71711118D01*
X81614892Y-71952175D01*
X81614890Y-71952187D01*
X81594357Y-72199994D01*
X81594357Y-72200005D01*
X78105643Y-72200005D01*
X78105643Y-72199994D01*
X78085109Y-71952187D01*
X78085107Y-71952175D01*
X78024063Y-71711118D01*
X77924173Y-71483393D01*
X77788166Y-71275217D01*
X77704002Y-71183791D01*
X77619744Y-71092262D01*
X77423509Y-70939526D01*
X77423507Y-70939525D01*
X77423506Y-70939524D01*
X77204811Y-70821172D01*
X77204802Y-70821169D01*
X76969616Y-70740429D01*
X76724335Y-70699500D01*
X76475665Y-70699500D01*
X76230383Y-70740429D01*
X75995197Y-70821169D01*
X75995188Y-70821172D01*
X75776493Y-70939524D01*
X75580257Y-71092261D01*
X75411833Y-71275217D01*
X75275826Y-71483393D01*
X75175936Y-71711118D01*
X75114892Y-71952175D01*
X75114890Y-71952187D01*
X75094357Y-72199994D01*
X75094357Y-72200005D01*
X71000500Y-72200005D01*
X71000500Y-68900005D01*
X83544858Y-68900005D01*
X83565385Y-69147729D01*
X83565387Y-69147738D01*
X83626412Y-69388717D01*
X83726266Y-69616364D01*
X83826564Y-69769882D01*
X84524070Y-69072376D01*
X84526884Y-69085915D01*
X84596442Y-69220156D01*
X84699638Y-69330652D01*
X84828819Y-69409209D01*
X84880002Y-69423549D01*
X84179942Y-70123609D01*
X84226768Y-70160055D01*
X84226770Y-70160056D01*
X84445385Y-70278364D01*
X84445396Y-70278369D01*
X84680506Y-70359083D01*
X84925707Y-70400000D01*
X85174293Y-70400000D01*
X85419493Y-70359083D01*
X85654603Y-70278369D01*
X85654614Y-70278364D01*
X85873228Y-70160057D01*
X85873231Y-70160055D01*
X85920056Y-70123609D01*
X85221568Y-69425121D01*
X85338458Y-69374349D01*
X85455739Y-69278934D01*
X85542928Y-69155415D01*
X85573354Y-69069802D01*
X86273434Y-69769882D01*
X86373731Y-69616369D01*
X86473587Y-69388717D01*
X86534612Y-69147738D01*
X86534614Y-69147729D01*
X86555141Y-68900005D01*
X90044858Y-68900005D01*
X90065385Y-69147729D01*
X90065387Y-69147738D01*
X90126412Y-69388717D01*
X90226266Y-69616364D01*
X90326564Y-69769882D01*
X91024070Y-69072375D01*
X91026884Y-69085915D01*
X91096442Y-69220156D01*
X91199638Y-69330652D01*
X91328819Y-69409209D01*
X91380002Y-69423549D01*
X90679942Y-70123609D01*
X90726768Y-70160055D01*
X90726770Y-70160056D01*
X90945385Y-70278364D01*
X90945396Y-70278369D01*
X91180506Y-70359083D01*
X91425707Y-70400000D01*
X91674293Y-70400000D01*
X91919493Y-70359083D01*
X92154603Y-70278369D01*
X92154614Y-70278364D01*
X92373228Y-70160057D01*
X92373231Y-70160055D01*
X92420056Y-70123609D01*
X91721568Y-69425121D01*
X91838458Y-69374349D01*
X91955739Y-69278934D01*
X92042928Y-69155415D01*
X92073354Y-69069802D01*
X92773434Y-69769882D01*
X92873731Y-69616369D01*
X92973587Y-69388717D01*
X93034612Y-69147738D01*
X93034614Y-69147729D01*
X93055141Y-68900005D01*
X93055141Y-68899994D01*
X93034614Y-68652270D01*
X93034612Y-68652261D01*
X92973587Y-68411282D01*
X92873731Y-68183630D01*
X92773434Y-68030116D01*
X92075929Y-68727622D01*
X92073116Y-68714085D01*
X92003558Y-68579844D01*
X91900362Y-68469348D01*
X91771181Y-68390791D01*
X91719995Y-68376449D01*
X92420056Y-67676389D01*
X92373229Y-67639943D01*
X92154614Y-67521635D01*
X92154603Y-67521630D01*
X91919493Y-67440916D01*
X91674293Y-67400000D01*
X91425707Y-67400000D01*
X91180506Y-67440916D01*
X90945396Y-67521630D01*
X90945390Y-67521632D01*
X90726761Y-67639949D01*
X90679942Y-67676388D01*
X90679941Y-67676389D01*
X91378431Y-68374878D01*
X91261542Y-68425651D01*
X91144261Y-68521066D01*
X91057072Y-68644585D01*
X91026645Y-68730197D01*
X90326564Y-68030116D01*
X90226267Y-68183632D01*
X90126412Y-68411282D01*
X90065387Y-68652261D01*
X90065385Y-68652270D01*
X90044858Y-68899994D01*
X90044858Y-68900005D01*
X86555141Y-68900005D01*
X86555141Y-68899994D01*
X86534614Y-68652270D01*
X86534612Y-68652261D01*
X86473587Y-68411282D01*
X86373731Y-68183630D01*
X86273434Y-68030116D01*
X85575929Y-68727622D01*
X85573116Y-68714085D01*
X85503558Y-68579844D01*
X85400362Y-68469348D01*
X85271181Y-68390791D01*
X85219997Y-68376450D01*
X85920057Y-67676390D01*
X85920056Y-67676389D01*
X85873229Y-67639943D01*
X85654614Y-67521635D01*
X85654603Y-67521630D01*
X85419493Y-67440916D01*
X85174293Y-67400000D01*
X84925707Y-67400000D01*
X84680506Y-67440916D01*
X84445396Y-67521630D01*
X84445390Y-67521632D01*
X84226761Y-67639949D01*
X84179942Y-67676388D01*
X84179942Y-67676390D01*
X84878431Y-68374878D01*
X84761542Y-68425651D01*
X84644261Y-68521066D01*
X84557072Y-68644585D01*
X84526645Y-68730197D01*
X83826564Y-68030116D01*
X83726267Y-68183632D01*
X83626412Y-68411282D01*
X83565387Y-68652261D01*
X83565385Y-68652270D01*
X83544858Y-68899994D01*
X83544858Y-68900005D01*
X71000500Y-68900005D01*
X71000500Y-64400005D01*
X83544357Y-64400005D01*
X83564890Y-64647812D01*
X83564892Y-64647824D01*
X83625936Y-64888881D01*
X83725826Y-65116606D01*
X83861833Y-65324782D01*
X83861836Y-65324785D01*
X84030256Y-65507738D01*
X84226491Y-65660474D01*
X84445190Y-65778828D01*
X84680386Y-65859571D01*
X84925665Y-65900500D01*
X85174335Y-65900500D01*
X85419614Y-65859571D01*
X85654810Y-65778828D01*
X85873509Y-65660474D01*
X86069744Y-65507738D01*
X86238164Y-65324785D01*
X86374173Y-65116607D01*
X86474063Y-64888881D01*
X86535108Y-64647821D01*
X86538915Y-64601877D01*
X86555643Y-64400005D01*
X86555643Y-64399994D01*
X86535109Y-64152187D01*
X86535107Y-64152175D01*
X86474063Y-63911118D01*
X86374173Y-63683393D01*
X86238166Y-63475217D01*
X86188368Y-63421122D01*
X86069744Y-63292262D01*
X85873509Y-63139526D01*
X85873507Y-63139525D01*
X85873506Y-63139524D01*
X85654811Y-63021172D01*
X85654802Y-63021169D01*
X85419616Y-62940429D01*
X85174335Y-62899500D01*
X84925665Y-62899500D01*
X84680383Y-62940429D01*
X84445197Y-63021169D01*
X84445188Y-63021172D01*
X84226493Y-63139524D01*
X84030257Y-63292261D01*
X83861833Y-63475217D01*
X83725826Y-63683393D01*
X83625936Y-63911118D01*
X83564892Y-64152175D01*
X83564890Y-64152187D01*
X83544357Y-64399994D01*
X83544357Y-64400005D01*
X71000500Y-64400005D01*
X71000500Y-57950001D01*
X72094532Y-57950001D01*
X72114364Y-58176686D01*
X72114366Y-58176697D01*
X72173258Y-58396488D01*
X72173261Y-58396497D01*
X72269431Y-58602732D01*
X72269432Y-58602734D01*
X72399954Y-58789141D01*
X72560858Y-58950045D01*
X72560861Y-58950047D01*
X72747266Y-59080568D01*
X72953504Y-59176739D01*
X73173308Y-59235635D01*
X73343214Y-59250499D01*
X73343215Y-59250500D01*
X73343216Y-59250500D01*
X73456785Y-59250500D01*
X73456785Y-59250499D01*
X73626692Y-59235635D01*
X73846496Y-59176739D01*
X74052734Y-59080568D01*
X74239139Y-58950047D01*
X74400047Y-58789139D01*
X74530568Y-58602734D01*
X74626739Y-58396496D01*
X74685635Y-58176692D01*
X74705468Y-57950000D01*
X74685635Y-57723308D01*
X74626739Y-57503504D01*
X74530568Y-57297266D01*
X74400047Y-57110861D01*
X74400045Y-57110858D01*
X74239141Y-56949954D01*
X74052734Y-56819432D01*
X74052732Y-56819431D01*
X73846497Y-56723261D01*
X73846488Y-56723258D01*
X73626697Y-56664366D01*
X73626687Y-56664364D01*
X73456785Y-56649500D01*
X73456784Y-56649500D01*
X73343216Y-56649500D01*
X73343215Y-56649500D01*
X73173312Y-56664364D01*
X73173302Y-56664366D01*
X72953511Y-56723258D01*
X72953502Y-56723261D01*
X72747267Y-56819431D01*
X72747265Y-56819432D01*
X72560858Y-56949954D01*
X72399954Y-57110858D01*
X72269432Y-57297265D01*
X72269431Y-57297267D01*
X72173261Y-57503502D01*
X72173258Y-57503511D01*
X72114366Y-57723302D01*
X72114364Y-57723313D01*
X72094532Y-57949998D01*
X72094532Y-57950001D01*
X71000500Y-57950001D01*
X71000500Y-57527037D01*
X71000633Y-57522981D01*
X71011570Y-57356099D01*
X71017340Y-57268060D01*
X71018397Y-57260031D01*
X71067837Y-57011479D01*
X71069938Y-57003641D01*
X71088162Y-56949954D01*
X71151401Y-56763657D01*
X71154493Y-56756193D01*
X71266588Y-56528886D01*
X71270642Y-56521867D01*
X71411438Y-56311151D01*
X71416359Y-56304738D01*
X71583466Y-56114188D01*
X71589188Y-56108466D01*
X71779738Y-55941359D01*
X71786151Y-55936438D01*
X71996872Y-55795639D01*
X72003886Y-55791588D01*
X72231193Y-55679493D01*
X72238657Y-55676401D01*
X72478639Y-55594938D01*
X72486479Y-55592837D01*
X72735032Y-55543397D01*
X72743057Y-55542340D01*
X72998009Y-55525630D01*
X73002009Y-55525500D01*
X175246599Y-55550492D01*
G37*
%TD.AperFunction*%
%TD*%
M02*
