%TF.GenerationSoftware,KiCad,Pcbnew,7.0.5*%
%TF.CreationDate,2023-12-02T12:19:24+05:30*%
%TF.ProjectId,GameBoy-Arduino,47616d65-426f-4792-9d41-726475696e6f,rev?*%
%TF.SameCoordinates,Original*%
%TF.FileFunction,Soldermask,Top*%
%TF.FilePolarity,Negative*%
%FSLAX46Y46*%
G04 Gerber Fmt 4.6, Leading zero omitted, Abs format (unit mm)*
G04 Created by KiCad (PCBNEW 7.0.5) date 2023-12-02 12:19:24*
%MOMM*%
%LPD*%
G01*
G04 APERTURE LIST*
G04 Aperture macros list*
%AMRoundRect*
0 Rectangle with rounded corners*
0 $1 Rounding radius*
0 $2 $3 $4 $5 $6 $7 $8 $9 X,Y pos of 4 corners*
0 Add a 4 corners polygon primitive as box body*
4,1,4,$2,$3,$4,$5,$6,$7,$8,$9,$2,$3,0*
0 Add four circle primitives for the rounded corners*
1,1,$1+$1,$2,$3*
1,1,$1+$1,$4,$5*
1,1,$1+$1,$6,$7*
1,1,$1+$1,$8,$9*
0 Add four rect primitives between the rounded corners*
20,1,$1+$1,$2,$3,$4,$5,0*
20,1,$1+$1,$4,$5,$6,$7,0*
20,1,$1+$1,$6,$7,$8,$9,0*
20,1,$1+$1,$8,$9,$2,$3,0*%
G04 Aperture macros list end*
%ADD10C,2.000000*%
%ADD11R,1.550000X1.300000*%
%ADD12R,2.000000X2.000000*%
%ADD13O,1.600000X2.000000*%
%ADD14C,2.100000*%
%ADD15RoundRect,0.102000X0.704000X0.704000X-0.704000X0.704000X-0.704000X-0.704000X0.704000X-0.704000X0*%
%ADD16C,1.612000*%
%ADD17R,1.600000X1.600000*%
%ADD18C,1.600000*%
%ADD19R,2.800000X2.800000*%
%ADD20RoundRect,0.750000X0.750000X-1.750000X0.750000X1.750000X-0.750000X1.750000X-0.750000X-1.750000X0*%
G04 APERTURE END LIST*
D10*
%TO.C,SW1*%
X85050000Y-64400000D03*
X91550000Y-64400000D03*
X85050000Y-68900000D03*
X91550000Y-68900000D03*
%TD*%
D11*
%TO.C,SW5*%
X148675000Y-71900000D03*
X156625000Y-71900000D03*
X148675000Y-76400000D03*
X156625000Y-76400000D03*
%TD*%
D12*
%TO.C,BZ1*%
X165800000Y-69200000D03*
D10*
X173400000Y-69200000D03*
%TD*%
%TO.C,SW4*%
X76600000Y-72200000D03*
X83100000Y-72200000D03*
X76600000Y-76700000D03*
X83100000Y-76700000D03*
%TD*%
%TO.C,SW3*%
X93400000Y-72000000D03*
X99900000Y-72000000D03*
X93400000Y-76500000D03*
X99900000Y-76500000D03*
%TD*%
D11*
%TO.C,SW6*%
X163550000Y-78950000D03*
X171500000Y-78950000D03*
X163550000Y-83450000D03*
X171500000Y-83450000D03*
%TD*%
D13*
%TO.C,U5*%
X116900000Y-58800000D03*
X119440000Y-58800000D03*
X121980000Y-58800000D03*
X124520000Y-58800000D03*
X127060000Y-58800000D03*
X129600000Y-58800000D03*
X132140000Y-58800000D03*
%TD*%
D14*
%TO.C,REF\u002A\u002A*%
X174825000Y-92575000D03*
%TD*%
%TO.C,REF\u002A\u002A*%
X73450000Y-92350000D03*
%TD*%
%TO.C,REF\u002A\u002A*%
X73400000Y-57950000D03*
%TD*%
D15*
%TO.C,SW7*%
X169787500Y-57800000D03*
D16*
X167287500Y-57800000D03*
X164787500Y-57800000D03*
%TD*%
D10*
%TO.C,SW2*%
X85200000Y-79800000D03*
X91700000Y-79800000D03*
X85200000Y-84300000D03*
X91700000Y-84300000D03*
%TD*%
D17*
%TO.C,U4*%
X107780000Y-90300000D03*
D18*
X107780000Y-87760000D03*
X107780000Y-85220000D03*
X107780000Y-82680000D03*
X107780000Y-80140000D03*
X107780000Y-77600000D03*
X107780000Y-75060000D03*
X107780000Y-72520000D03*
X107780000Y-69980000D03*
X107780000Y-67440000D03*
X107780000Y-64900000D03*
X107780000Y-62360000D03*
X123020000Y-62360000D03*
X123020000Y-64900000D03*
X123020000Y-67440000D03*
X123020000Y-69980000D03*
X123020000Y-72520000D03*
X123020000Y-75060000D03*
X123020000Y-77600000D03*
X123020000Y-80140000D03*
X123020000Y-82680000D03*
X123020000Y-85220000D03*
X123020000Y-87760000D03*
X123020000Y-90300000D03*
%TD*%
D19*
%TO.C,U1*%
X141112500Y-91412500D03*
X126912500Y-91412500D03*
X141112500Y-68512500D03*
X126612500Y-68512500D03*
X137612500Y-68512500D03*
X130012500Y-68512500D03*
%TD*%
D20*
%TO.C,U2*%
X156095000Y-59855000D03*
X148495000Y-59855000D03*
X155795000Y-91255000D03*
X148795000Y-91255000D03*
%TD*%
M02*
